<?xml version="1.0" standalone="no"?>
<!DOCTYPE svg PUBLIC "-//W3C//DTD SVG 20010904//EN"
 "http://www.w3.org/TR/2001/REC-SVG-20010904/DTD/svg10.dtd">
<svg version="1.0" xmlns="http://www.w3.org/2000/svg"
 width="1036.000000pt" height="1036.000000pt" viewBox="0 0 1036.000000 1036.000000"
 preserveAspectRatio="xMidYMid meet">
<metadata>
Created by potrace 1.14, written by Peter Selinger 2001-2017
</metadata>
<g transform="translate(0.000000,1036.000000) scale(0.100000,-0.100000)"
fill="#000000" stroke="none">
<path d="M5205 9950 c-56 -12 -106 -43 -140 -85 -19 -23 -35 -47 -35 -54 0 -6
-5 -11 -11 -11 -5 0 -7 -4 -4 -10 3 -5 1 -10 -6 -10 -7 0 -9 -3 -6 -6 4 -4 -2
-19 -13 -34 -11 -16 -20 -31 -20 -34 0 -2 -15 -31 -34 -63 -32 -55 -49 -87
-119 -213 -17 -30 -41 -73 -53 -95 -13 -22 -37 -67 -54 -100 -18 -33 -39 -68
-48 -77 -8 -10 -12 -18 -7 -18 4 0 3 -6 -3 -12 -11 -14 -40 -64 -85 -148 -16
-30 -49 -89 -72 -130 -56 -100 -105 -188 -123 -225 -8 -16 -21 -37 -28 -45 -7
-8 -14 -22 -16 -30 -2 -8 -6 -17 -9 -20 -6 -4 -83 -143 -146 -260 -13 -25 -28
-52 -33 -60 -15 -24 -77 -136 -133 -240 -27 -52 -56 -102 -63 -111 -8 -8 -14
-19 -14 -23 0 -4 -17 -38 -39 -74 -21 -37 -52 -92 -69 -122 -16 -30 -41 -75
-54 -100 -48 -85 -125 -225 -163 -295 -21 -38 -47 -82 -57 -97 -11 -16 -16
-28 -11 -28 4 0 4 -4 -2 -8 -5 -4 -19 -23 -29 -42 -21 -38 -55 -101 -89 -165
-12 -22 -24 -42 -27 -45 -13 -13 -101 -187 -105 -207 -2 -10 -4 -18 -5 -18 -1
0 -3 -12 -4 -27 -1 -16 3 -28 9 -28 7 0 7 -3 0 -8 -8 -6 -13 -135 -5 -152 1
-3 1 -9 0 -15 -7 -25 -4 -297 3 -302 4 -2 4 -10 0 -16 -11 -18 -9 -227 2 -227
6 0 6 -3 0 -8 -12 -8 -13 -140 -2 -158 3 -6 3 -14 0 -18 -12 -11 -9 -246 2
-246 6 0 4 -4 -3 -9 -15 -9 -15 -20 0 -38 6 -7 6 -13 1 -13 -10 0 -11 -140 0
-156 3 -6 3 -14 0 -18 -12 -11 -9 -246 2 -246 6 0 6 -3 0 -8 -6 -4 -10 -20
-10 -37 1 -30 -15 -63 -47 -99 -10 -11 -18 -23 -18 -26 0 -4 -11 -20 -25 -36
-14 -16 -60 -76 -102 -134 -43 -58 -83 -111 -90 -118 -7 -8 -18 -23 -24 -34
-6 -11 -19 -29 -29 -41 -10 -12 -57 -74 -104 -137 -46 -63 -92 -124 -100 -135
-9 -11 -61 -81 -116 -155 -56 -74 -108 -145 -118 -157 -9 -12 -24 -31 -32 -43
-15 -22 -62 -85 -78 -105 -4 -5 -28 -37 -52 -70 -24 -33 -47 -61 -52 -63 -4
-2 -8 -8 -8 -14 0 -6 -9 -20 -20 -32 -39 -43 -86 -112 -110 -161 l-24 -49 0
-747 c0 -814 -4 -758 58 -847 51 -74 155 -109 257 -87 18 4 58 23 87 41 29 19
54 34 56 34 2 0 71 42 152 93 82 51 193 119 247 152 54 33 110 68 125 77 15
10 36 22 47 28 11 6 40 23 65 39 25 16 48 30 51 30 6 1 9 -30 9 -89 0 -8 -2
-58 -3 -110 -2 -52 1 -103 5 -112 5 -10 5 -18 1 -18 -10 0 -9 -91 0 -107 4 -7
3 -14 -1 -17 -5 -3 -7 -29 -5 -58 2 -29 4 -57 3 -63 -5 -121 -4 -151 5 -157 7
-5 6 -8 -1 -8 -18 0 2 -86 30 -134 13 -23 37 -55 52 -71 16 -17 58 -64 94
-105 36 -40 70 -78 75 -84 33 -37 97 -110 145 -166 74 -85 86 -96 139 -122
l46 -23 1385 0 c1291 0 1388 1 1430 17 42 17 120 82 152 127 8 11 37 44 64 74
27 29 74 82 104 117 80 92 142 161 166 186 11 12 31 43 44 70 23 49 23 52 24
449 1 220 5 399 9 399 15 -3 172 -98 175 -106 2 -4 7 -8 12 -8 5 0 82 -46 172
-101 89 -56 177 -109 193 -119 17 -10 78 -47 138 -84 59 -36 109 -66 112 -66
3 0 10 -3 17 -5 58 -20 153 -4 211 35 58 39 84 76 105 150 7 25 5 1483 -2
1514 -6 23 -73 133 -96 156 -18 18 -70 90 -70 97 0 5 -9 14 -20 21 -11 7 -20
17 -20 22 0 9 -19 35 -47 65 -7 8 -13 18 -13 23 0 5 -7 15 -15 22 -9 7 -29 34
-46 59 -17 25 -38 50 -45 54 -8 4 -14 12 -14 17 0 8 -97 143 -148 205 -4 6
-28 37 -52 69 -24 33 -49 67 -56 75 -7 9 -49 66 -93 126 -45 61 -91 123 -103
139 -13 16 -34 45 -48 65 -14 19 -34 46 -45 58 -11 12 -63 81 -115 152 l-95
131 -2 883 c-1 485 -3 890 -5 899 -2 10 -7 21 -11 24 -4 4 -7 13 -7 20 0 6
-18 42 -40 78 -22 36 -40 70 -40 76 0 5 -5 10 -11 10 -5 0 -8 4 -5 9 4 5 3 11
-1 13 -5 1 -18 23 -31 48 -12 25 -27 52 -32 60 -22 34 -118 210 -131 239 -8
17 -16 31 -20 31 -3 0 -11 16 -19 35 -8 19 -18 35 -22 35 -5 0 -6 5 -3 10 3 6
1 10 -4 10 -6 0 -11 4 -11 9 0 5 -38 78 -85 162 -47 84 -85 157 -85 161 0 4
-3 8 -7 8 -5 0 -19 25 -33 55 -14 30 -28 55 -32 55 -5 0 -8 5 -8 11 0 7 -29
63 -65 125 -36 62 -65 118 -65 124 0 5 -3 10 -8 10 -4 0 -17 21 -30 48 -25 51
-24 49 -199 362 -66 118 -135 242 -153 275 -19 33 -40 74 -49 90 -8 17 -17 32
-20 35 -3 3 -13 19 -22 35 -40 78 -74 140 -79 145 -6 5 -43 74 -86 160 -16 30
-31 57 -34 60 -3 3 -12 19 -21 35 -40 75 -84 152 -100 180 -10 17 -27 48 -39
70 -11 22 -38 72 -60 110 -22 39 -50 89 -62 113 -64 124 -179 188 -293 162z
m620 -1785 c5 -11 39 -72 74 -135 36 -63 76 -135 89 -160 50 -94 67 -125 72
-130 6 -6 12 -17 72 -130 25 -47 55 -101 67 -120 11 -19 24 -42 28 -50 4 -8
28 -51 53 -95 25 -44 53 -95 61 -112 7 -18 17 -33 21 -33 5 0 8 -5 8 -11 0 -9
29 -63 127 -234 6 -11 21 -40 34 -65 12 -25 25 -47 28 -50 3 -3 17 -27 30 -55
14 -27 27 -52 30 -55 3 -3 13 -18 21 -35 8 -16 17 -32 20 -35 3 -3 20 -34 38
-68 31 -61 33 -70 33 -170 0 -59 0 -115 0 -124 -1 -17 -4 -16 -51 2 -27 11
-50 17 -50 15 0 -3 -8 -2 -17 4 -44 22 -242 32 -333 16 -25 -4 -54 -9 -65 -11
-94 -14 -270 -107 -356 -188 l-26 -24 -29 27 c-39 36 -140 103 -189 125 -22
10 -53 24 -69 32 -16 8 -39 14 -51 14 -12 0 -25 3 -29 7 -3 4 -12 8 -19 9 -7
1 -30 5 -52 9 -102 19 -267 10 -360 -19 -5 -2 -25 -7 -42 -11 -18 -4 -33 -11
-33 -16 0 -5 -3 -8 -7 -7 -25 6 -153 -67 -227 -129 -44 -37 -49 -38 -68 -20
-53 53 -164 119 -283 168 -147 60 -446 54 -567 -11 -13 -7 -20 -5 -28 9 -5 11
-6 22 -1 25 4 3 5 24 1 46 -4 21 -5 42 -2 45 3 3 5 29 4 58 -2 31 4 63 13 81
51 95 61 113 74 129 8 9 11 17 8 17 -4 0 9 25 28 55 19 30 35 58 35 62 0 5 11
25 25 46 14 20 23 37 20 37 -4 0 1 7 9 16 9 8 14 20 11 25 -4 5 -2 9 3 9 5 0
18 17 27 38 10 20 21 39 24 42 3 3 22 37 42 75 20 39 57 106 82 150 96 170
119 211 130 238 6 15 15 27 19 27 4 0 8 4 8 9 0 5 16 37 34 70 19 34 33 61 30
61 -3 0 4 10 16 22 11 12 20 27 20 34 0 6 9 23 20 37 12 15 21 30 22 34 2 18
22 53 30 53 5 0 7 4 4 9 -3 5 1 14 9 21 8 7 12 16 9 21 -3 5 0 9 5 9 6 0 11 7
11 15 0 8 5 15 10 15 6 0 9 3 8 8 -2 4 28 62 65 128 l69 121 556 -1 c546 -1
557 -1 567 -21z m-1315 -5890 c80 0 151 4 158 8 6 5 12 5 12 0 0 -12 623 -10
632 2 5 6 8 6 8 0 0 -12 289 -13 308 -2 6 5 12 5 12 0 0 -12 304 -11 312 2 5
6 8 6 8 0 0 -12 289 -13 308 -2 6 5 12 5 12 0 0 -12 304 -11 312 2 5 7 8 7 8
0 0 -6 27 -10 65 -9 l65 1 0 -416 c0 -384 -1 -418 -17 -432 -15 -14 -63 -67
-161 -178 -12 -14 -34 -39 -49 -56 l-26 -29 -1220 -1 c-1093 0 -1220 2 -1235
16 -9 8 -38 40 -64 70 -26 30 -61 70 -79 89 -74 82 -110 133 -100 143 7 7 7
15 0 24 -8 9 -8 13 -1 13 7 0 8 10 2 30 -5 17 -6 30 -2 30 4 0 5 45 2 100 -3
55 -1 100 3 100 4 0 3 9 -3 20 -6 11 -7 20 -3 20 4 0 6 45 3 100 -3 55 -1 100
3 100 4 0 3 9 -3 20 -6 11 -7 20 -3 20 8 0 8 158 0 166 -2 2 -2 15 0 27 l5 23
284 -1 c184 0 284 3 284 10 0 7 3 7 8 0 4 -6 66 -10 152 -10z"/>
</g>
</svg>
