<svg id="Group_905" data-name="Group 905" xmlns="http://www.w3.org/2000/svg" xmlns:xlink="http://www.w3.org/1999/xlink" width="64.75" height="107.738" viewBox="0 0 64.75 107.738">
  <defs>
    <clipPath id="clip-path">
      <rect id="Rectangle_322" data-name="Rectangle 322" width="64.75" height="107.738" transform="translate(0 0)"/>
    </clipPath>
  </defs>
  <g id="Group_904" data-name="Group 904" clip-path="url(#clip-path)">
    <path id="Path_1823" data-name="Path 1823" d="M63.832,40.031a32.375,32.375,0,1,0-62.914,0A48.379,48.379,0,0,0,4.451,52.625C7.632,59.307,21.02,81.368,27.167,91.416,18.858,92.475,15,96.048,15,99.415c0,4.008,5.436,8.323,17.374,8.323s17.374-4.315,17.374-8.323c0-3.367-3.857-6.94-12.166-8C43.729,81.368,57.117,59.307,60.3,52.625a48.368,48.368,0,0,0,3.533-12.594M44.742,99.415c-.338.948-4.517,3.323-12.367,3.323-7.942,0-12.127-2.431-12.377-3.29.225-.83,3.637-2.87,10.086-3.277l.163.264a2.5,2.5,0,0,0,4.256,0l.162-.265c6.366.4,9.774,2.4,10.077,3.245M58.953,38.933c-.016.063-.028.129-.039.193a44.5,44.5,0,0,1-3.129,11.35C52.572,57.222,37.916,81.3,32.375,90.345c-5.541-9.048-20.2-33.123-23.41-39.869A44.5,44.5,0,0,1,5.836,39.127c-.011-.065-.024-.13-.039-.193a27.375,27.375,0,1,1,53.156,0"/>
    <path id="Path_1824" data-name="Path 1824" d="M32.375,14.172A17.375,17.375,0,1,0,49.749,31.547,17.394,17.394,0,0,0,32.375,14.172m0,29.749A12.375,12.375,0,1,1,44.749,31.547,12.388,12.388,0,0,1,32.375,43.921"/>
  </g>
</svg>
