<?xml version="1.0" encoding="utf-8"?>
<!-- Generator: Adobe Illustrator 27.0.0, SVG Export Plug-In . SVG Version: 6.00 Build 0)  -->
<svg version="1.1" id="a" xmlns="http://www.w3.org/2000/svg" xmlns:xlink="http://www.w3.org/1999/xlink" x="0px" y="0px"
	 viewBox="0 0 23.1 33" style="enable-background:new 0 0 23.1 33;" xml:space="preserve">
<style type="text/css">
	.st0{fill:#FFF6DF;}
	.st1{fill:#FFF6DF;stroke:#FFF6DF;stroke-width:0.75;stroke-miterlimit:10;}
</style>
<g id="b">
	<path class="st0" d="M22.1,19.8c-0.2-0.2-0.4-0.3-0.7-0.3h-4.9V1.7c0-0.5-0.4-1-1-1H7.6c-0.5,0-1,0.4-1,1v17.8H1.7
		c-0.5,0-1,0.4-1,1c0,0.2,0.1,0.5,0.3,0.7L10.8,32c0.4,0.4,1,0.4,1.4,0.1l0.1-0.1l9.9-10.9c0.1-0.1,0.2-0.3,0.2-0.5
		c0-0.1,0-0.2,0-0.3c0,0,0,0,0-0.1c0-0.1,0-0.1-0.1-0.2C22.3,20,22.2,19.9,22.1,19.8z M11.6,29.8L11.6,29.8l-7.6-8.4h3.7
		c0.5,0,1-0.4,1-1V2.7h5.9v17.8c0,0.5,0.4,1,1,1h3.7L11.6,29.8z"/>
	<polygon class="st1" points="1.7,20.4 7.5,20.4 7.5,2 15.2,2 15.2,20.4 21,20.4 11.4,31.1 	"/>
</g>
</svg>
