<svg id="Group_903" data-name="Group 903" xmlns="http://www.w3.org/2000/svg" xmlns:xlink="http://www.w3.org/1999/xlink" width="99.72" height="100.621" viewBox="0 0 99.72 100.621">
  <defs>
    <clipPath id="clip-path">
      <rect id="Rectangle_321" data-name="Rectangle 321" width="99.72" height="100.621" fill="#070000"/>
    </clipPath>
  </defs>
  <g id="Group_902" data-name="Group 902" clip-path="url(#clip-path)">
    <path id="Path_1820" data-name="Path 1820" d="M5.925,19.245a15.138,15.138,0,0,0-1.157,1.446C1.509,23.577-1.069,29.927.444,37.751a78.079,78.079,0,0,0,69.4,62.77q1.113.1,2.206.1a20.394,20.394,0,0,0,10.637-2.8,15.606,15.606,0,0,0,3.792-3.06l2.95-3.262a15.579,15.579,0,0,0-1.1-21.976l-4.98-4.5a15.552,15.552,0,0,0-21.975,1.1l-2.949,3.26a15.449,15.449,0,0,0-2.749,4.273A55.1,55.1,0,0,1,28.3,48.6a15.554,15.554,0,0,0,5.686-3.984l2.949-3.258a15.566,15.566,0,0,0-1.1-21.981l-4.977-4.5a15.564,15.564,0,0,0-21.979,1.1Zm5.915-.581a11.565,11.565,0,0,1,16.33-.814l4.976,4.5a11.566,11.566,0,0,1,.819,16.331l-2.948,3.258h0a11.524,11.524,0,0,1-5.23,3.316l-.9.269a2,2,0,0,0-1.216,2.805l.417.84A59.1,59.1,0,0,0,55.338,77.844l.774.305a2,2,0,0,0,2.63-1.227L59,76.139a11.5,11.5,0,0,1,2.385-4.068l2.95-3.261a11.553,11.553,0,0,1,16.326-.818l4.978,4.5a11.575,11.575,0,0,1,.82,16.326l-2.953,3.264a11.726,11.726,0,0,1-2.872,2.306A17.1,17.1,0,0,1,70.2,96.537,74.062,74.062,0,0,1,4.372,36.995c-1.3-6.738,1.15-11.686,3.116-13.369a2.007,2.007,0,0,0,.181-.176l.137-.151a2.253,2.253,0,0,0,.163-.2,11.355,11.355,0,0,1,.924-1.167Z" fill="#070000"/>
    <path id="Path_1821" data-name="Path 1821" d="M99.72,47.507A47.559,47.559,0,0,0,52.218,0a4.161,4.161,0,1,0,0,8.323A39.228,39.228,0,0,1,91.4,47.507a4.16,4.16,0,0,0,8.319,0m-4.158,2.159A2.162,2.162,0,0,1,93.4,47.507,41.231,41.231,0,0,0,52.218,6.322a2.162,2.162,0,1,1,0-4.323,45.557,45.557,0,0,1,45.5,45.508,2.161,2.161,0,0,1-2.158,2.159" fill="#070000"/>
    <path id="Path_1822" data-name="Path 1822" d="M51.706,15.47a4.16,4.16,0,0,0,0,8.32A24.253,24.253,0,0,1,75.931,48.016a4.161,4.161,0,1,0,8.322,0A32.583,32.583,0,0,0,51.706,15.47M80.093,50.177a2.164,2.164,0,0,1-2.162-2.161A26.255,26.255,0,0,0,51.706,21.79a2.16,2.16,0,0,1,0-4.32A30.581,30.581,0,0,1,82.253,48.016a2.163,2.163,0,0,1-2.16,2.161" fill="#070000"/>
  </g>
</svg>
