<svg id="Group_907" data-name="Group 907" xmlns="http://www.w3.org/2000/svg" xmlns:xlink="http://www.w3.org/1999/xlink" width="97.129" height="109.551" viewBox="0 0 97.129 109.551">
  <defs>
    <clipPath id="clip-path">
      <rect id="Rectangle_323" data-name="Rectangle 323" width="97.129" height="109.551" transform="translate(0 0)" fill="#030000"/>
    </clipPath>
  </defs>
  <g id="Group_906" data-name="Group 906" clip-path="url(#clip-path)">
    <path id="Path_1825" data-name="Path 1825" d="M2,46.571a8.952,8.952,0,0,0-2,5.648v48.112a9.01,9.01,0,0,0,9,9h1.221l.22.22.219-.22H86.469l.219.22.22-.22h1.221a9.01,9.01,0,0,0,9-9V52.219a8.95,8.95,0,0,0-2-5.649,2.381,2.381,0,0,0-.7-1.725L50.256.673a2.463,2.463,0,0,0-3.383,0L2.7,44.845A2.388,2.388,0,0,0,2,46.571m12.658,58.76L37.231,82.76,46.873,92.4a2.391,2.391,0,0,0,3.383,0L59.9,82.76l22.571,22.571ZM21.9,62.017v-16.8H76.029V61.213L48.564,88.679Zm71.226-9.8v48.112a5.009,5.009,0,0,1-3.994,4.9L63.281,79.376l29.33-29.33a4.92,4.92,0,0,1,.518,2.173M48.564,5.749,89.352,46.537,78.9,56.988V43.782a1.434,1.434,0,0,0-1.435-1.435h-57a1.435,1.435,0,0,0-1.437,1.435V57.791L7.777,46.537ZM4,52.219a4.92,4.92,0,0,1,.518-2.173l29.33,29.33L7.994,105.229A5.007,5.007,0,0,1,4,100.331Z" fill="#030000"/>
  </g>
</svg>
