<svg xmlns="http://www.w3.org/2000/svg" width="71.836" height="59.865" viewBox="0 0 71.836 59.865">
  <path id="Path_210" d="M32.969.316a.815.815,0,0,1,.874-.325.45.45,0,0,1,.318.39l5.562,13.142A15.45,15.45,0,0,0,49.5,21.916l15.812,5.14a.588.588,0,0,1,.4.716.891.891,0,0,1-.4.325L49.258,32.65a15.293,15.293,0,0,0-10.329,7.872L32.652,53.469a.815.815,0,0,1-.874.325.891.891,0,0,1-.4-.325L25.818,40.327a15.45,15.45,0,0,0-9.773-8.392L.392,26.795a.588.588,0,0,1-.4-.716.891.891,0,0,1,.4-.325L16.442,21.2a15.868,15.868,0,0,0,10.25-8L32.969.316Z" transform="translate(3.068 3.04)" fill="#0a0000" stroke="#081a2b" stroke-miterlimit="10" stroke-width="6"/>
</svg>
