<svg xmlns="http://www.w3.org/2000/svg" xmlns:xlink="http://www.w3.org/1999/xlink" width="2394.433" height="673.096" viewBox="0 0 2394.433 673.096">
  <defs>
    <clipPath id="clip-path">
      <rect id="Rectangle_60" data-name="Rectangle 60" width="2394.433" height="673.096" fill="none"/>
    </clipPath>
    <clipPath id="clip-path-2">
      <rect id="Rectangle_61" data-name="Rectangle 61" width="2232.425" height="609.045" fill="none"/>
    </clipPath>
  </defs>
  <g id="Group_204" data-name="Group 204" transform="translate(-0.001)">
    <g id="Group_199" data-name="Group 199" transform="translate(0.001)">
      <g id="Group_198" data-name="Group 198" clip-path="url(#clip-path)">
        <path id="Path_562" data-name="Path 562" d="M2394.434,495.668C2228.287,275.118,2082.61,242.29,2082.61,242.29s48.923-59.793-187.338-157.64-312.713-43.487-312.713-43.487C1087.944-89.3,614.913,144.442,614.913,144.442l-43.485-43.485C527.941,57.47,212.659,204.239,174.6,231.42s0,81.536,0,81.536C116.24,345.945,51.963,426.317,0,502.64V671.732H2394.434Z" transform="translate(-0.002 1.368)" fill="#fbc748"/>
      </g>
    </g>
    <g id="Group_201" data-name="Group 201" transform="translate(26.553 58.046)">
      <g id="Group_200" data-name="Group 200" clip-path="url(#clip-path-2)">
        <path id="Path_563" data-name="Path 563" d="M402.407,291.079c-14.4-10.04-42.217-11.566-34.768-37.379,3.165-10.96,8.5-10.65,8.018-23.247-.2-5.124-9.647-6.91-13.166-6.772a628.608,628.608,0,0,0-144.427,22.085,44.777,44.777,0,0,0-4.852,1.654c-38.676,5.2-76.76,19.44-105.778,45.8C98.539,301.308,92.7,307.589,97.25,316.69c-14.093,5.644-28.591,15.375-29,32.2a30.973,30.973,0,0,0,1.861,10.476,6.3,6.3,0,0,0-.709,3.18,418.069,418.069,0,0,0,6.143,45.986c-1.328,50.564,55.974,73.142,99.762,60.252,5.868-1.727,19.518-5.612,19.253-13.682-.694-20.736-12.769-45.328-19.522-65.626a256.81,256.81,0,0,0,54.494,7.309c28.05,17.36,92.461,13.5,118.225-1.871.309.047.651.09.924.137,8.887,1.519,49.37-11.14,29.97-22.483l-13.059-8.45,11.785-36.82c3.638-4.05,12.107-5.44,16.632-8.841,8.021-6.037,11.7-9.374,12.863-19.385.473-4.086-1.3-5.8-4.454-8m-187.1,77.237c.767-.387,1.468-.8,2.177-1.218,1.7.8,3.4,1.618,5.112,2.393-2.449-.344-4.864-.748-7.286-1.179M153.166,382.5c.322.129.666.219.988.348-.29.064-.58.14-.874.208-.036-.187-.075-.374-.114-.561" transform="translate(32.872 136.696)" fill="#fbc748"/>
        <path id="Path_564" data-name="Path 564" d="M138.748,208.729c25.628,4.512,51.7-2.417,75.786-10.736,31.988-11.054,68.735-20.564,97.192-39.4,11.576-7.67,34.873-28.281,20.968-42.342-4.864-4.92-13.169-4.2-19.369-4.568-17.5-1.057-25.143-2.782-41.238-9.013-35.681-13.813-78.928,10.152-110.28,36.04-18.562,7.37-60.063,20.317-65.162,36.326-6.646,20.929,27.622,31.144,42.09,33.69" transform="translate(56.853 27.826)" fill="#fbc748"/>
        <path id="Path_565" data-name="Path 565" d="M127.634,300.842c29.844-4.3,57.429-27.732,77.325-48.637,6.893-7.243,5.425-12.859.352-16.439a11.927,11.927,0,0,0-2.817-4.329,11.545,11.545,0,0,0,.427-8.979A237.921,237.921,0,0,0,184.7,182.6a11,11,0,0,0-1.375-1.6c-2.7-13.145-20.153-13.736-30.843-8.547l-6.847,3.326c-4.544,2.206-10.771,6.921-11.924,12.522a16.271,16.271,0,0,0-3.2,1.829c-45.9,35.191-93.452,86.046-115.043,140.3-7.3,18.359,18.759,20.506,29.973,15.268,24.12-11.254,50.749-20.818,72.488-36.466a85.748,85.748,0,0,0,9.707-8.386" transform="translate(-14.196 89.451)" fill="#fbc748"/>
        <path id="Path_566" data-name="Path 566" d="M540.354,148.87c-36.921-10.047,28.011-42.359,5.174-67.1-14.155-15.339-41.858-8.089-60.764.541a36.269,36.269,0,0,0-11.43.215,27.827,27.827,0,0,0-14.4,2.146,99.512,99.512,0,0,0-26.952,17.087c-13.832,6.037-26.161,17.023-35.946,27.972-12.487,13.987-16.944,28.739-17.416,44.74-4.115.187-9.969,2.806-11.243,4.325a41.423,41.423,0,0,0-10.223,22.7,3.5,3.5,0,0,0-1.225,2.005c-3.9,32.413-6.149,64.255,13.968,91.952,2.058,2.832,10.663,1.07,14.069-2.155,2.146,2.138,9.514.651,13.209-1.871a13,13,0,0,0,3.975.408,25.693,25.693,0,0,0,3.545-.473c.153.251.262.5.419.748,1.192,1.884,4.645,1.833,8,.87.329.451.6.9.952,1.356,1.528,2.02,5.661,1.736,9.292.451.348.075.658.187,1.027.251a14.44,14.44,0,0,0,2.166.039,22.69,22.69,0,0,0,4.677,4.39c2.5,1.708,6.263,1.39,9.5.247,5.069,2.17,8.9,1.871,11.785-.047a16.2,16.2,0,0,0,8.2-1.231,18.384,18.384,0,0,0,9.217-7.619,1.679,1.679,0,0,0,.254-.028,18.106,18.106,0,0,0,4.035-1.309c3.435,3.367,16.239-.286,15.3-5.1-.168-.862-.374-1.736-.548-2.6,7.223-8.315,3.227-23.651-2.915-33.4a168.646,168.646,0,0,0,23.593-8.618c22.24-10.262,54.488-34.736,62.5-58.853,8.276-24.9-14.864-27.435-31.8-32.04" transform="translate(281.067 5.357)" fill="#fbc748"/>
        <path id="Path_567" data-name="Path 567" d="M1103.505,89.428c-38.311-19.558-78.1-37.265-120-47.58-23.365-5.75-62.293-17.618-85.042-5.719a26.571,26.571,0,0,0-7.509,5.636A14.946,14.946,0,0,0,884,43.048a11.964,11.964,0,0,0-5.146,1.014c-29.73,14.778-37.306,42.711-46.018,71.332a206.6,206.6,0,0,0-7.771,23.325c-1.9,7.148,13.714,5.285,15.714.062,1.122-2.911,2.123-5.947,3.083-9.028a80.271,80.271,0,0,0-.082,12.672c.208,2.821,2.825,3.67,5.848,3.466-.666,2.134-1.418,4.23-2.058,6.381-1.21,4.057,3.219,4.78,7.054,4.533-.384,2.993-.724,6.023-.963,9.1-.473,6.1,7.583,5.468,12.206,3.18-.223,1.805-.5,3.6-.67,5.425-.427,4.473,4,5.389,8.3,4.508-.262.924-.52,1.852-.784,2.778-2.217,7.857,12.762,3.913,15.54.239-1.05,4.14-2.209,8.25-3.219,12.4-.96,3.928,3.068,5.069,7.312,4.54-.187.87-.348,1.77-.541,2.636-1.684,7.67,14.423,5.006,16.2-1.39q9.852-35.417,19.711-70.843a6.969,6.969,0,0,0,1.962,1.751,749.026,749.026,0,0,0,107.937,56.224c22.867,9.54,43.326,19.157,67.99,12.358,4.235-1.167,13.779-7.462,6.734-11.809-26.96-16.628-68.688-33.322-81.343-64.678,26.088,3.036,51.787,17.792,76.551,24.635a385.616,385.616,0,0,0,63.84,11.3c4.579.466,16.447-2.943,14.649-9.671-8.579-32.074-55.848-46.448-82.531-60.068M927.346,97.285c-.505-.623-1.018-1.192-1.523-1.794,1.143.767,2.28,1.558,3.427,2.323a12.951,12.951,0,0,0-1.07.819,5.956,5.956,0,0,0-.834-1.347m118.008-.374c1.884.831,3.771,1.657,5.657,2.5q-3.157-1.024-6.306-2.088c.226-.133.43-.275.651-.408m-19.829,12.139c.011-.082.015-.165.028-.247l1.246-.387c.416.15.834.294,1.25.44a3.516,3.516,0,0,0,.313.211c-.936,0-1.871-.036-2.836-.015" transform="translate(691.651 -31.034)" fill="#fbc748"/>
        <path id="Path_568" data-name="Path 568" d="M1084.827,222.448c-47.34-26.584-96.181-31.653-149.712-26.823-25.692,2.32-47.717,21.151-48.21,41.607-.187-.561-.419-1.066-.642-1.579-2.563-15.751-4.379-31.489-5.425-47.5-.286-4.418-19.558,1.88-21.211,4.841-16.5,29.577-22.21,61.17-16.972,92.543a132.377,132.377,0,0,0,12.225,38.91,2.512,2.512,0,0,0,1.482,1.175,290.939,290.939,0,0,0,42.453,64.427l.015.043h.015c.187.226.374.462.576.69a1.786,1.786,0,0,0,.651.443q.042,2.116.09,4.23l.591.685q1.844.988,3.682,1.983c1.472.791,5,.78,8.723.2q2.551,2.287,5.107,4.572c3.055,2.735,21.6-3.24,20.815-6.212,4.278,2.774,8.59,5.472,12.82,8.367,2.37,1.571,8.018.226,12.776-1.723A138.421,138.421,0,0,0,990.76,418.3a9.259,9.259,0,0,0,4.677.125c1.221.572,2.393,1.179,3.648,1.727,4.115,1.8,23.439-4.727,20.2-7.108-3.569-2.619-6.867-5.371-10.227-8.1,3.534-1.633,5.937-3.427,4.791-4.325a579.579,579.579,0,0,1-50.3-44.175,3.22,3.22,0,0,0-1.8-.737A98.425,98.425,0,0,0,951.167,344c1.367-.819,2.073-1.7,1.571-2.585A140.581,140.581,0,0,0,936.378,318.1c.251-.294.374-.548.232-.716a509.583,509.583,0,0,0-46.267-48.614,2.617,2.617,0,0,0-.3-.187q-2.562-6.462-5.128-12.922c-.309-1.265-.591-2.619-.874-3.968,2.538-1.2,4.329-2.628,4.293-4.093,0-.357-.039-.634-.054-.975.187.576.387,1.152.606,1.732a1.684,1.684,0,0,0-.05,1.482c9.017,17.807,22.193,30.168,35.484,44.83,16.153,17.825,27.654,38.962,42.958,57.4,26.75,32.241,60.377,43.811,101.223,38.5,2.969-.387,12.958-2.832,12.487-7.524-2.757-27.564-45.571-47.576.892-65.383,17.406-6.671,36.878,1.562,54.775-8.934,53.353-31.285-25.166-71.328-51.817-86.291m-149.684,142.6c-.27.125-.509.251-.748.374l-1.813-3.448c.853,1.027,1.7,2.058,2.568,3.068M909.212,229.319c0-.047.011-.082.015-.129,1,.963,2.037,1.895,3.083,2.828a8.98,8.98,0,0,0-3.09-.634c0-.694-.05-1.347,0-2.058m71.324-24.38c-.561-.157-1.136-.286-1.7-.443.819.028,1.637.036,2.452.075-.251.114-.5.247-.748.374" transform="translate(705.466 104.444)" fill="#fbc748"/>
        <path id="Path_569" data-name="Path 569" d="M1260.4,212.539c-16.06-15.006-34.575-21.337-55.951-15.762-23.875,6.231-36.291,19.582-40.745,35.778a7.317,7.317,0,0,0-1.225-.187c.075-1.532.079-3.055.161-4.587.086-1.59-7.215-1.418-13.314.223-.336-.032-.544-.047-.694-.051a20.739,20.739,0,0,0-10.87-6.882,18.092,18.092,0,0,0-5.593.011c-5.668-5.257-14.849-5.32-24.3.118-26.969,15.515-21.374,62.336-12.139,85.622.451,1.135,2.151,1.611,4.394,1.618.587,5.6,2.926,8.16,8.657,12.056,1.225.838,5.084.548,9.153-.318q2.234,2.837,4.461,5.679c1.238,1.571,5.038,1.575,9.1.8q6.316,9.313,12.636,18.62c1.511,2.224,6.173,1.79,10.76.423,4.093,5.15,7.943,9.656,10.663,12.984.971,1.192,3.094,1.5,5.632,1.274,2.484,3.612,5.03,7.191,7.705,10.706,1.018,1.336,4,1.551,7.419,1.122,1.261,1.218,2.421,2.484,3.753,3.666a2.8,2.8,0,0,0,1.074.516c1.038,1.328,2.013,2.692,3.064,4.014,3.023,3.8,22.989-1.6,21.384-5.73a39.225,39.225,0,0,0-15.527-20.345c-2.89-3.949-5.633-7.991-8.429-12-.892-2.535-1.751-5.073-2.61-7.615a293.932,293.932,0,0,0,41.59,41.151c2.277,1.844,12.98-.165,18.129-2.98,12.883,18.145,27.7,31.042,47.544,25.128,13.023-3.882,14.947-10.392,11.8-23.4-3.118-12.891-12.178-23.787-17.21-35.892-3.107-7.466-15.8-42.421-.254-33.967,4.45,2.417,19.988-.47,20.764-6.534,3.459-27.4-31.219-66.792-50.971-85.249m24.983,169.6c.688-.219,1.35-.455,1.951-.709.243.92.443,1.8.608,2.647-.9-.584-1.7-1.309-2.557-1.938M1184.538,268.187h-.011c-.071-.208-.137-.415-.2-.623.071.208.149.412.215.619m15.657-57.442c-1.038-.172-2.073-.314-3.107-.387a23.041,23.041,0,0,1,4.215-2.432,22.4,22.4,0,0,0-1.107,2.821m-30.3,75.761c-.114-1.339-.23-2.714-.348-4.1.533,1.246,1.077,2.488,1.657,3.724-.438.114-.873.247-1.309.374m-54.211-52.257a24.69,24.69,0,0,0-2.993,1.437,35.725,35.725,0,0,1,1.848-3.9,13.121,13.121,0,0,1,1.143,2.46" transform="translate(920.808 111.535)" fill="#fbc748"/>
      </g>
    </g>
    <g id="Group_203" data-name="Group 203" transform="translate(0.001)">
      <g id="Group_202" data-name="Group 202" clip-path="url(#clip-path)">
        <path id="Path_570" data-name="Path 570" d="M2394.433,487.881c-53.675-70.643-115.419-134.827-188-185.606-28.982-20.278-59.784-38.657-92.64-51.963-6.7-2.714-16.965-4.143-22.9-8.143a18.407,18.407,0,0,0-1.884-1.122c-.279-3.04,3.023-9.8,3.137-13.224.374-11.473-5.522-22.358-11.766-31.552-33.672-49.542-102.826-78.661-154.832-101.677-73.956-32.736-153.44-61.528-234.611-68.642-36.706-3.219-66.408,2.828-101.389,9.9-2.479.5-4.662,2.911-7.108,3.309-9.933,1.641,11.716-1.543-9.836-2.883-25.759-1.6-53.517-12.371-79.129-16.929q-45.342-8.078-91.211-12.683a1392.605,1392.605,0,0,0-274.217.211A1671.428,1671.428,0,0,0,700.127,107.056c-26.666,10.058-55.171,27.818-82.778,34.833a52.1,52.1,0,0,1-7.6-8.289c-10.491-14.99-29.835-35.391-48.076-40.593-37.733-10.76-89.715,10.075-124.686,21.438-58.755,19.1-116.061,42.926-172.156,68.731-29.957,13.779-90.689,31.876-107.549,63.368-13.428,25.089,13.878,55.977,8.418,69.566-2.32,5.758-25.011,17.584-29.472,21.241A443.3,443.3,0,0,0,95.8,375.5,1020.3,1020.3,0,0,0,0,494.189v17.073C47.789,438.9,103,359.957,177.9,315.836c1.309-.763,2.675-2.1,1.672-3.584-17.058-25.3-25.3-58.95,2.189-80.53,11.826-9.284,27.717-15.539,41.053-22.218,47.728-23.9,96.8-45.386,146.487-64.865,48.966-19.193,100.9-39.828,153.515-46.095,42.481-5.051,58.925,21.138,87.122,49.335,1.6,1.6,5.335.9,7.062.047C800.583,57.649,1017.592,12.848,1220.6,6.585A1291.973,1291.973,0,0,1,1486.893,25.03c34.027,6.059,72.308,24.552,105.058,15.8,108.939-29.111,225.713,14.881,325.067,58.849,52.127,23.067,124.176,52.378,155.552,103.918,6.388,10.5,14.058,28.531,5.073,39.989-1.171,1.5.322,2.6,1.684,2.918,48.958,11.293,96.338,43.734,135.547,73.279,69.087,52.045,128.117,115.889,179.564,185.548Z" transform="translate(-0.001 0.003)" fill="#22242b"/>
        <path id="Path_571" data-name="Path 571" d="M92.236,190.026c2,117.2,355.566-83.463,392.322-105.626,4.65-2.806-6.063-2.151-8.311-.8a1549.637,1549.637,0,0,1-162.6,85.745c-39.284,17.732-209.335,99.029-210.723,17.814-.039-2.3-10.749-.548-10.689,2.864" transform="translate(80.303 71.777)" fill="#22242b"/>
        <path id="Path_572" data-name="Path 572" d="M90.753,149.472A704.406,704.406,0,0,0,135.192,247.4c2.108,3.839,12.382.1,9.828-4.555a691.8,691.8,0,0,1-43.577-96.241c-1.644-4.523-12.285-1.511-10.689,2.864" transform="translate(78.872 125.69)" fill="#22242b"/>
        <path id="Path_573" data-name="Path 573" d="M102.152,159.974a420.64,420.64,0,0,0,26.24,54.24c1.955,3.4,12.314-.129,9.879-4.372a408.346,408.346,0,0,1-25.43-52.73c-1.629-4.1-12.217-.978-10.689,2.864" transform="translate(88.806 135.104)" fill="#22242b"/>
        <path id="Path_574" data-name="Path 574" d="M110.29,161.683l17.433,39.185c1.637,3.678,12.135.374,10.693-2.864q-8.718-19.594-17.427-39.185c-1.637-3.678-12.131-.374-10.689,2.864" transform="translate(95.912 136.867)" fill="#22242b"/>
        <path id="Path_575" data-name="Path 575" d="M117.733,163.122q4.554,12.924,9.1,25.864c1.568,4.447,12.21,1.446,10.689-2.864q-4.549-12.933-9.1-25.864c-1.562-4.447-12.206-1.446-10.689,2.864" transform="translate(102.374 137.617)" fill="#22242b"/>
        <path id="Path_576" data-name="Path 576" d="M126.595,162.407a46.273,46.273,0,0,0,7.692,22.074c1.736,2.6,11.536-1.594,10.689-2.868a46.26,46.26,0,0,1-7.692-22.074c-.161-1.934-10.928-.019-10.689,2.864" transform="translate(110.215 138.222)" fill="#22242b"/>
        <path id="Path_577" data-name="Path 577" d="M101.409,179.278a649.435,649.435,0,0,1,129.95-75.948c6.875-3.008.486-5.3-3.945-3.367A671.23,671.23,0,0,0,93.043,178.281c-4.551,3.416,6.087,2.711,8.371,1" transform="translate(80.031 86.411)" fill="#22242b"/>
        <path id="Path_578" data-name="Path 578" d="M102.592,171.843q35.106-22.967,70.213-45.93c6.023-3.945-3.266-5.131-6.581-2.965L96.016,168.882c-6.023,3.94,3.266,5.127,6.577,2.961" transform="translate(81.866 106.113)" fill="#22242b"/>
        <path id="Path_579" data-name="Path 579" d="M103.862,185.348q55.887-31.1,111.771-62.214c6.216-3.463-3.466-3.646-6.334-2.058Q153.413,152.192,97.528,183.3c-6.216,3.463,3.463,3.651,6.334,2.058" transform="translate(83.132 104.579)" fill="#22242b"/>
        <path id="Path_580" data-name="Path 580" d="M114.765,187.478a560.519,560.519,0,0,1,104.309-58.441c6.921-2.958.451-4.834-3.846-2.993a583.85,583.85,0,0,0-108.76,60.71c-4.5,3.193,6.141,2.26,8.3.733" transform="translate(91.738 109.104)" fill="#22242b"/>
        <path id="Path_581" data-name="Path 581" d="M125.383,178.4q40.246-20.035,80.5-40.067c6.255-3.115-3.717-2.151-6.048-.991q-40.246,20.04-80.507,40.071c-6.259,3.115,3.717,2.151,6.048.991" transform="translate(102.119 118.61)" fill="#22242b"/>
        <path id="Path_582" data-name="Path 582" d="M66.854,444.849c-1.014-33.713-12.331-84.888,6.94-113.773,23.523-35.252,73.548-59.118,111.891-75.056,75.922-31.582,159.355-42.237,240.813-47.6,79.213-5.217,169.013-8.669,245.429,16.733,35.793,11.9,59.032,34.85,64.2,72.989,4.955,36.573,5.464,67.572,25.315,100.235,1.852,3.047,11.946-.8,10.693-2.864a155.123,155.123,0,0,1-22.766-66.378c-2.359-22.1-.733-45.414-11.312-65.774-14.065-27.07-43.773-39.9-71.882-47.019-90.463-22.923-190.389-18.319-282.36-9.166-78.85,7.857-158.732,22.7-230.178,58.351-30.768,15.354-70.913,36.369-90.768,65.621-19.887,29.3-7.692,83.7-6.7,116.558.075,2.527,10.8.67,10.689-2.864" transform="translate(44.896 173.839)" fill="#22242b"/>
        <path id="Path_583" data-name="Path 583" d="M364.061,219.1c66.855-5.483,192.849,44.508,99.578,114.721-53.688,40.406-122.539,53.059-187.044,65-4.49.831-9.288,5.969-1.818,4.587,74.265-13.746,158.869-29.025,215.261-83.925,73.4-71.47-69.122-109.547-121.5-105.254-3.161.262-11.516,5.449-4.476,4.864" transform="translate(235.845 186.235)" fill="#22242b"/>
        <path id="Path_584" data-name="Path 584" d="M93.7,259.538c-33.709,30.851-9.574,71.646,24.6,89.832,58.211,30.963,129.152,25.884,192.552,21.395,6.02-.426,8.242-8.351.948-7.834-43.025,3.051-86.972,6.138-129.692-1.723-21.756-4-45.831-10.775-64.537-23.127C93.632,322.272,74,288.95,100.8,264.422c5.328-4.877-3.115-8.526-7.094-4.884" transform="translate(67.474 224.68)" fill="#22242b"/>
        <path id="Path_585" data-name="Path 585" d="M117.756,273.867c61.34-29.82,133.084-36.874,199.462-49.307,6.721-1.257,4.755-8.107-1.841-6.875-67.736,12.7-139.616,19.891-202.236,50.326-6.585,3.2-.681,8.44,4.619,5.865" transform="translate(95.967 189.4)" fill="#22242b"/>
        <path id="Path_586" data-name="Path 586" d="M88.7,282.684q67.686-13.668,134.169-32.175c6.306-1.758,5.12-6.547-1.278-4.763q-65.076,18.16-131.282,31.578c-4.763.96-9,6.843-1.611,5.35" transform="translate(73.744 213.618)" fill="#22242b"/>
        <path id="Path_587" data-name="Path 587" d="M81.036,296.778q89.819-22.891,181-39.388c4.43-.8,9.353-5.747,1.871-4.39q-92.679,16.769-183.885,40.015c-6.263,1.594-5.328,5.378,1.01,3.764" transform="translate(65.967 220.07)" fill="#22242b"/>
        <path id="Path_588" data-name="Path 588" d="M84.63,307.182q73.738-15.281,145.645-37.435c6.424-1.977,4.727-8.747-1.8-6.734q-71.97,22.17-145.649,37.435c-6.671,1.382-4.78,8.1,1.805,6.734" transform="translate(68.485 228.67)" fill="#22242b"/>
        <path id="Path_589" data-name="Path 589" d="M83.228,305.024a563.826,563.826,0,0,0,109.115-24.1c7.247-2.37.391-3.478-3.623-2.162a520.307,520.307,0,0,1-100.8,22.2c-2.66.314-11.6,4.881-4.693,4.061" transform="translate(70.225 242.218)" fill="#22242b"/>
        <path id="Path_590" data-name="Path 590" d="M93.746,313.325a369.531,369.531,0,0,0,86.538-18.491c6.192-2.123,4.9-7.748-1.5-5.558A357.135,357.135,0,0,1,95.143,307.2c-5.32.49-8.813,6.8-1.407,6.123" transform="translate(77.92 251.425)" fill="#22242b"/>
        <path id="Path_591" data-name="Path 591" d="M108.685,317.947q34.272-8.32,67.521-19.984c7.172-2.507.419-3.91-3.706-2.464q-31.9,11.159-64.713,19.1c-6.248,1.515-5.414,4.881.9,3.349" transform="translate(90.114 256.769)" fill="#22242b"/>
        <path id="Path_592" data-name="Path 592" d="M121.754,331.843l151.377-36.377c6.467-1.555,5.021-6.949-1.446-5.393Q196,308.258,120.316,326.449c-6.467,1.551-5.021,6.949,1.446,5.393" transform="translate(101.106 252.309)" fill="#22242b"/>
        <path id="Path_593" data-name="Path 593" d="M88.747,283.8l-4.383-8.6c-1.987-3.893-10.685-.337-10.259,3.713A457.278,457.278,0,0,0,96.8,380.976c1.575,4.551,12.225,1.571,10.689-2.868a457.327,457.327,0,0,1-22.7-102.068l-10.255,3.713,4.383,8.6c1.977,3.885,12.249.187,9.825-4.568" transform="translate(64.505 238.132)" fill="#22242b"/>
        <path id="Path_594" data-name="Path 594" d="M83.2,296.628a368.394,368.394,0,0,0,9.6,66.365c.655,2.75,11.383.043,10.689-2.864a368.563,368.563,0,0,1-9.6-66.365c-.122-2.353-10.867-.462-10.689,2.864" transform="translate(72.434 254.853)" fill="#22242b"/>
        <path id="Path_595" data-name="Path 595" d="M91.2,304.506q7.422,30.422,14.845,60.847c.623,2.553,11.347-.168,10.693-2.864q-7.427-30.422-14.849-60.847c-.623-2.55-11.347.168-10.689,2.864" transform="translate(79.38 261.738)" fill="#22242b"/>
        <path id="Path_596" data-name="Path 596" d="M102.2,310.262q5.623,28.573,11.25,57.145c1.046,5.292,11.751,2.522,10.693-2.864q-5.629-28.573-11.254-57.145c-1.042-5.3-11.751-2.522-10.689,2.864" transform="translate(88.915 265.163)" fill="#22242b"/>
        <path id="Path_597" data-name="Path 597" d="M112.828,315.651q8.791,29.154,15.641,58.806c.8,3.444,11.519.728,10.689-2.868q-6.849-29.668-15.642-58.81c-1.053-3.5-11.72-.561-10.689,2.864" transform="translate(98.17 270.949)" fill="#22242b"/>
        <path id="Path_598" data-name="Path 598" d="M75.062,276.185a149.372,149.372,0,0,0,4.2,110.181c1.88,4.351,12.457,1.218,10.689-2.868a146.613,146.613,0,0,1-4.115-108.311c1.519-4.4-9.335-3.165-10.775,1.01" transform="translate(57.911 237.184)" fill="#22242b"/>
        <path id="Path_599" data-name="Path 599" d="M877.942,33.316c-103.673,70.608,151.377,167.663,192.78,181.767,51.256,17.474,124.2,46.667,179.034,32.1,48.966-13.012,53.145-56.17,20.8-89.617-2.894-2.993-13.067,1.092-9.871,4.4,4.877,5.041,10.741,10.2,14.451,16.213q25.683,38.173-23.632,46.323-18.75,24.05-43.663,16.8c-18.673-1.038-38.1-6.674-56.236-11.018a825.342,825.342,0,0,1-116.377-37.2,820.235,820.235,0,0,1-104.083-50.6C901.011,125.045,831.3,73.6,884.757,37.186c5.986-4.074-3.028-6.452-6.82-3.87" transform="translate(742.967 28.071)" fill="#22242b"/>
        <path id="Path_600" data-name="Path 600" d="M859.583,42.536a255.889,255.889,0,0,0-38.41,94.032c-1.057,5.507,9.894,4.3,10.85-.713A244.354,244.354,0,0,1,868.6,45.969c3.784-5.715-6.162-7.756-9.02-3.431" transform="translate(714.891 35.014)" fill="#22242b"/>
        <path id="Path_601" data-name="Path 601" d="M869.174,39.266a1228.272,1228.272,0,0,1,160.244,58.05c4.525,2,12.378-4.508,6.158-7.262A1228.8,1228.8,0,0,0,875.332,32c-4.645-1.328-12.612,5.425-6.158,7.262" transform="translate(754.635 27.715)" fill="#22242b"/>
        <path id="Path_602" data-name="Path 602" d="M860.6,43.565a426.915,426.915,0,0,1,121,37.722c2.735,1.324,11.037-3.1,10.1-3.554A431.356,431.356,0,0,0,869.43,39.585c-2.432-.374-11.458,3.573-8.826,3.984" transform="translate(748.869 34.443)" fill="#22242b"/>
        <path id="Path_603" data-name="Path 603" d="M858.075,52.234a321.25,321.25,0,0,1,84.606,22.848c3.451,1.457,13.126-3.47,8.433-5.449A337.447,337.447,0,0,0,862.1,45.689c-4.447-.561-11.2,5.612-4.031,6.538" transform="translate(744.347 39.748)" fill="#22242b"/>
        <path id="Path_604" data-name="Path 604" d="M855.932,60.647a440.971,440.971,0,0,1,155.474,47.312c3,1.558,12.84-2.851,8.532-5.088A446.392,446.392,0,0,0,862.513,54.964c-3.275-.374-12.507,5.017-6.577,5.683" transform="translate(743.528 47.838)" fill="#22242b"/>
        <path id="Path_605" data-name="Path 605" d="M862.493,69.108a645.2,645.2,0,0,1,72.046,16.1c2.432.694,11.8-3.255,8.792-4.115a644.28,644.28,0,0,0-72.041-16.1c-2.5-.408-11.622,3.652-8.792,4.115" transform="translate(750.464 56.557)" fill="#22242b"/>
        <path id="Path_606" data-name="Path 606" d="M871.752,81.008a685.637,685.637,0,0,1,136.915,48.665c3.219,1.543,12.988-3.1,8.483-5.26A695.194,695.194,0,0,0,878.261,75.075c-3.517-.842-12.582,4.476-6.51,5.934" transform="translate(757.211 65.286)" fill="#22242b"/>
        <path id="Path_607" data-name="Path 607" d="M876.881,43.641a251.436,251.436,0,0,0-45.743,117.039c-.11.877,10.317.137,10.689-2.864A248.571,248.571,0,0,1,887.391,41.629c.419-.58-8.712-.477-10.506,2.02" transform="translate(723.628 35.99)" fill="#22242b"/>
        <path id="Path_608" data-name="Path 608" d="M864.014,65.118q-9.117,28.326-18.241,56.651c-1.053,3.266,9.568,1.871,10.646-1.5q9.125-28.326,18.246-56.651c1.049-3.266-9.57-1.871-10.65,1.5" transform="translate(736.307 53.778)" fill="#22242b"/>
        <path id="Path_609" data-name="Path 609" d="M872.782,76.937q-11.317,33.119-22.635,66.232c-1.343,3.928,9.421,2.619,10.724-1.21q11.311-33.111,22.635-66.232c1.343-3.928-9.421-2.61-10.724,1.21" transform="translate(740.078 63.863)" fill="#22242b"/>
        <path id="Path_610" data-name="Path 610" d="M878.235,82.854A181.517,181.517,0,0,0,862.574,124.2c-1.19,4.834,9.707,3.455,10.792-.963a172.894,172.894,0,0,1,15.017-39.416c2.7-5.116-8.1-4.83-10.148-.952" transform="translate(750.92 69.619)" fill="#22242b"/>
        <path id="Path_611" data-name="Path 611" d="M894.932,87.547a617.981,617.981,0,0,0-32.538,91.838c-.666,2.479,9.8,1.038,10.567-1.8A617.783,617.783,0,0,1,905.5,85.749c.87-1.951-9.3-1.057-10.567,1.8" transform="translate(750.815 73.75)" fill="#22242b"/>
        <path id="Path_612" data-name="Path 612" d="M1180.521,186c-69.362,7.466-114.6,72.888-89.464,140.149,1.414,3.784,12.01.666,10.689-2.864-22.2-59.4,11.774-124.211,77.34-131.271,5.238-.561,8.848-6.815,1.435-6.016" transform="translate(943.812 161.877)" fill="#22242b"/>
        <path id="Path_613" data-name="Path 613" d="M1144.662,206.454c-59.077,83.012,52.647,187.626,115.045,228.309,25.28,16.482,69.365,36.624,94.458,7.784,30.174-34.673-21.266-106.382-35.875-138.316-2.1-4.579-12.672-1.461-10.689,2.864,13.893,30.372,33.8,62.422,41.854,94.945q16.275,47.25-55.018,41.433a188.614,188.614,0,0,1-31.685-18.233,403.1,403.1,0,0,1-35.492-26.866c-46.616-39.166-119.175-125.006-73.687-188.924,3.91-5.492-6.145-6.871-8.9-2.993" transform="translate(982.048 177.83)" fill="#22242b"/>
        <path id="Path_614" data-name="Path 614" d="M1161.945,182.108a110.859,110.859,0,0,1,41.422,28.3c2.245,2.432,12.386-1.386,9.976-3.988a114.634,114.634,0,0,0-42.793-29.115c-2.875-1.122-12.618,3.236-8.6,4.8" transform="translate(1010.814 154.213)" fill="#22242b"/>
        <path id="Path_615" data-name="Path 615" d="M1252.957,379.72c2.076-1.607,4.115-3.255,6.13-4.982,11.316-9.737,32.671-27.7,28.793-44.752-.591-2.6-11.329.05-10.689,2.864,3.38,14.86-14.366,30.389-24.453,39.471-2.894,2.61-5.911,5.038-8.979,7.391Z" transform="translate(1082.878 286.379)" fill="#22242b"/>
        <path id="Path_616" data-name="Path 616" d="M1139.842,207.79q31.946,32.569,60.944,67.783c1.97,2.393,12.193-1.253,10-3.913q-28.994-35.223-60.944-67.783c-2.245-2.288-12.275,1.59-10,3.913" transform="translate(992.112 176.898)" fill="#22242b"/>
        <path id="Path_617" data-name="Path 617" d="M1150.5,203.314c17.99,9.267,29.538,30.909,41.3,46.579l38.446,51.222c1.891,2.518,12.206-1.01,9.984-3.971L1197.264,239.9c-11.2-14.92-21.121-32.581-38.144-41.341-2.711-1.4-12.573,2.726-8.618,4.763" transform="translate(1000.879 172.63)" fill="#22242b"/>
        <path id="Path_618" data-name="Path 618" d="M1164.656,205.617a516.851,516.851,0,0,1,55.386,76.263c2.3,3.867,12.562.011,9.815-4.594a516.628,516.628,0,0,0-55.379-76.259c-3.016-3.451-13.209.716-9.815,4.591" transform="translate(1013.419 173.904)" fill="#22242b"/>
        <path id="Path_619" data-name="Path 619" d="M1135.564,216.638q31.921,36.64,63.84,73.283c3.3,3.788,13.424-.587,9.765-4.791q-31.924-36.64-63.84-73.283c-3.3-3.792-13.427.587-9.765,4.791" transform="translate(987.993 183.184)" fill="#22242b"/>
        <path id="Path_620" data-name="Path 620" d="M1129.513,229.941q56.4,63.191,112.8,126.381c3.262,3.655,13.4-.677,9.781-4.731l-112.8-126.381c-3.262-3.655-13.4.673-9.78,4.731" transform="translate(982.74 194.88)" fill="#22242b"/>
        <path id="Path_621" data-name="Path 621" d="M1128.3,245.012a617.17,617.17,0,0,0,53.546,64.493c2.213,2.327,12.286-1.519,10-3.928a617.452,617.452,0,0,1-53.555-64.489c-1.775-2.46-12.107,1-10,3.928" transform="translate(982.102 209.174)" fill="#22242b"/>
        <path id="Path_622" data-name="Path 622" d="M1159.2,213.05a260.3,260.3,0,0,0-57.384,67.54c-3.047,5.156,7.81,5.382,10.235,1.281a246.341,246.341,0,0,1,54.262-63.847c5.558-4.645-2.958-8.45-7.108-4.974" transform="translate(958.831 184.317)" fill="#22242b"/>
        <path id="Path_623" data-name="Path 623" d="M1148.435,224.935l-40,62.989c-2.806,4.4,7.978,3.706,10.019.486q20.006-31.491,40.008-62.989c2.793-4.4-7.979-3.706-10.023-.486" transform="translate(964.651 193.564)" fill="#22242b"/>
        <path id="Path_624" data-name="Path 624" d="M1152.992,242.65a93.067,93.067,0,0,0-36.573,40.556c-2.3,4.948,8.4,4.057,10.036.537a84.717,84.717,0,0,1,33.314-37.387c6.173-3.741-3.008-5.986-6.775-3.706" transform="translate(971.728 210.464)" fill="#22242b"/>
        <path id="Path_625" data-name="Path 625" d="M1147.658,261.516a158.068,158.068,0,0,0-23.772,24.047c-1.543,1.938,1.339,2.522,2.735,2.535a9.818,9.818,0,0,0,7.1-2.757,148.837,148.837,0,0,1,22.343-22.695c1.77-1.45,1.132-2.643-.842-3.154a10.294,10.294,0,0,0-7.559,2.026" transform="translate(978.125 225.854)" fill="#22242b"/>
        <path id="Path_626" data-name="Path 626" d="M1149.883,277.36l-14.7,15.033c-1.773,1.813,1.532,2.417,2.7,2.409a10.525,10.525,0,0,0,7.108-2.722l14.7-15.038c1.775-1.813-1.532-2.413-2.7-2.409a10.517,10.517,0,0,0-7.108,2.726" transform="translate(987.9 239.109)" fill="#22242b"/>
        <path id="Path_627" data-name="Path 627" d="M247.475,83.778c24.462-16.248,53.675-16.969,79.641-4.418,2.828,1.371,11.4-3.032,10.062-3.678-31.936-15.437-68.582-11.806-97.917,7.681-4.426,2.937,6.2,1.751,8.214.415" transform="translate(207.381 57.536)" fill="#22242b"/>
        <path id="Path_628" data-name="Path 628" d="M449.644,76.574c-39.115,32.147-79.974,40.361-85.848,97.474-5.069,49.271,4.9,85,59.139,82.765,31.187-1.285,62.641-6.71,93.66-10.122,32.011-3.521,65.985-4.222,97.173-12.808,33.193-9.146,64-31.951,64.1-68.872,0-2.4-10.682-.69-10.689,2.864-.165,63.886-80.971,66.554-128.164,71.743-38.9,4.278-91.783,19.354-130.04,11.982-42.8-8.246-41.274-68.254-30.944-101.23,11.924-38.081,51.654-49.585,79.968-72.856,4.419-3.631-6.162-2.742-8.351-.935" transform="translate(315.721 65.304)" fill="#22242b"/>
        <path id="Path_629" data-name="Path 629" d="M377.6,132.54A859.367,859.367,0,0,1,522.443,82.36c6.338-1.579,5.214-5.93-1.164-4.34a876.46,876.46,0,0,0-147.643,51.106c-6.832,3.072-.483,5.425,3.964,3.423" transform="translate(322.69 67.629)" fill="#22242b"/>
        <path id="Path_630" data-name="Path 630" d="M375.393,137.949a563.816,563.816,0,0,1,101.971-36.461c6.431-1.622,5.021-6.979-1.433-5.35a579.538,579.538,0,0,0-104.756,37.413c-6.714,3.154-.561,6.65,4.226,4.4" transform="translate(320.585 83.437)" fill="#22242b"/>
        <path id="Path_631" data-name="Path 631" d="M370.534,145.75A321.558,321.558,0,0,0,427.2,122.464c6.456-3.408.619-8.558-4.6-5.8a305.837,305.837,0,0,1-53.89,22.279c-6.435,1.962-4.712,8.8,1.826,6.807" transform="translate(317.497 100.892)" fill="#22242b"/>
        <path id="Path_632" data-name="Path 632" d="M368.969,169.506q63.339-27.389,128.364-50.4c6.979-2.467.709-6.957-4.422-5.139q-65.054,23.026-128.364,50.4c-6.785,2.933-.677,7.344,4.422,5.139" transform="translate(314.772 98.859)" fill="#22242b"/>
        <path id="Path_633" data-name="Path 633" d="M370.048,163.587a165.471,165.471,0,0,0,41.873-18.6c6.106-3.811-3.236-5.077-6.585-2.993a144.624,144.624,0,0,1-36.665,16.451c-6.313,1.826-5.051,6.989,1.375,5.131" transform="translate(317.377 122.76)" fill="#22242b"/>
        <path id="Path_634" data-name="Path 634" d="M373.163,191.145l157.462-56.389c7-2.507.67-6.51-4.312-4.723q-78.733,28.2-157.464,56.387c-7,2.507-.666,6.506,4.312,4.723" transform="translate(318.433 112.826)" fill="#22242b"/>
        <path id="Path_635" data-name="Path 635" d="M384.994,190.84l99-37.7c6.8-2.589.834-8.962-4.864-6.792l-99,37.712c-6.8,2.589-.834,8.962,4.864,6.792" transform="translate(328.316 127.028)" fill="#22242b"/>
        <path id="Path_636" data-name="Path 636" d="M366.722,114.632c-21.657,14.831-32.46,40.561-26.376,66.318.948,4.022,11.665,1.265,10.689-2.864a56.434,56.434,0,0,1,22.448-59.833c5.969-4.086-3.105-6.123-6.753-3.623" transform="translate(294.857 98.852)" fill="#22242b"/>
        <path id="Path_637" data-name="Path 637" d="M576.474,163.664c-37.318,17.431-75.054,34.218-117.164,32.441-4.074-.172-11.359,5.758-4.16,6.063,45.053,1.9,85.489-15.394,125.547-34.106,6.734-3.141.576-6.639-4.222-4.4" transform="translate(393.621 141.875)" fill="#22242b"/>
        <path id="Path_638" data-name="Path 638" d="M973.314,195.182c-31.438-6.1-70.131-11.88-96.052,12.468-34.794,32.691-1.3,67.242,25.183,90.695,38.468,34.074,41.1,78.246,94.281,93.836,31.406,9.209,64.066,15.225,95.927,22.742,27.371,6.459,55.83,16.016,84.011,18.211,79.03,6.149,91.2-95.942,48.057-145.061-33.576-38.227-88.622-39.542-132.743-57.956s-78.472-51.677-128.641-36.756c-6.212,1.848-5.185,6.24,1.164,4.351,48.147-14.32,83.366,23.333,124.09,39.259,28.434,11.117,59.326,15.006,87.226,27.586,32.433,14.627,55.77,40.745,62.1,76.39,9.292,52.339-24.4,94.6-82.342,82.049-37.093-8.044-73.952-17.384-110.9-26.1-39.792-9.385-72.484-14.03-94.341-52.547-13.667-24.086-25.562-38.264-46.392-57-13-11.692-28.434-25.183-30.744-43.738-5.887-47.341,58.652-50.062,93.381-43.326,2.86.561,12.44-3.992,6.734-5.1" transform="translate(750.801 165.087)" fill="#22242b"/>
        <path id="Path_639" data-name="Path 639" d="M940.316,176.395c-27.16-1.309-56.048.039-75.363,21.81-19.6,22.1-34.815,64.481-28.034,93.424.956,4.089,11.673,1.332,10.689-2.864-5.425-23.157,4.645-49.073,14.63-69.852,14.767-30.7,42.116-37.465,74.063-35.917,4.43.215,11.233-6.252,4.014-6.6" transform="translate(727.236 153.272)" fill="#22242b"/>
        <path id="Path_640" data-name="Path 640" d="M1093.306,292.76c13.027,29.452,2.194,65.731-26.891,80.984-6.443,3.367-.659,9.192,4.751,6.36,32.284-16.929,47.823-56.307,32.828-90.2-2.1-4.751-12.7-1.684-10.689,2.864" transform="translate(925.998 250.323)" fill="#22242b"/>
        <path id="Path_641" data-name="Path 641" d="M869.753,209.588q74.942,49,153.844,91.288c3.8,2.033,13.33-3.2,8.315-5.887Q952.989,252.7,878.068,203.7c-3.642-2.378-13.188,2.7-8.315,5.887" transform="translate(756.068 176.819)" fill="#22242b"/>
        <path id="Path_642" data-name="Path 642" d="M873.216,202.017a1115.612,1115.612,0,0,0,130.184,81.56c2.89,1.543,11.877-2.832,10.023-3.824A1115.977,1115.977,0,0,1,883.241,198.2c-2.593-1.884-12.064,2.342-10.023,3.824" transform="translate(760.017 172.145)" fill="#22242b"/>
        <path id="Path_643" data-name="Path 643" d="M884.708,197.2q52.444,35.142,107.134,66.662c2.793,1.607,11.841-2.75,10.036-3.792q-54.7-31.52-107.136-66.651c-2.647-1.775-11.942,2.51-10.036,3.788" transform="translate(770.045 168.035)" fill="#22242b"/>
        <path id="Path_644" data-name="Path 644" d="M904.8,197.055q47.957,30.751,95.908,61.5c3.012,1.934,12.569-2.389,9.957-4.065q-47.951-30.745-95.908-61.5c-3.012-1.934-12.569,2.389-9.958,4.065" transform="translate(787.378 167.602)" fill="#22242b"/>
        <path id="Path_645" data-name="Path 645" d="M918.567,196.439A320.431,320.431,0,0,1,1010,245.51c3.094,2.374,12.994-1.891,9.914-4.261a331.484,331.484,0,0,0-94.857-50.818c-3.554-1.218-12.5,3.953-6.491,6.012" transform="translate(797.991 165.639)" fill="#22242b"/>
        <path id="Path_646" data-name="Path 646" d="M863.989,223.964a704.07,704.07,0,0,1,82.546,41.715c2.855,1.684,12.737-2.55,8.547-5.025a704.09,704.09,0,0,0-82.546-41.715c-3.044-1.3-12.812,3.208-8.547,5.025" transform="translate(751.307 190.419)" fill="#22242b"/>
        <path id="Path_647" data-name="Path 647" d="M878.262,247.124q81.028,43.285,162.058,86.566c4.115,2.2,13.469-3.384,8.231-6.173q-81.028-43.285-162.058-86.566c-4.115-2.2-13.469,3.384-8.231,6.173" transform="translate(763.305 209.348)" fill="#22242b"/>
        <path id="Path_648" data-name="Path 648" d="M902.935,275.948a708.076,708.076,0,0,1,79.484,35.4c3.775,1.966,13.327-3.251,8.324-5.855a726.678,726.678,0,0,0-81.517-36.3c-4.168-1.558-12.511,4.433-6.291,6.76" transform="translate(784.199 234.148)" fill="#22242b"/>
        <path id="Path_649" data-name="Path 649" d="M846.665,256.725a228.236,228.236,0,0,0,44.841,88.88c1.829,2.245,12.017-1.379,10.027-3.814a225.232,225.232,0,0,1-44.179-87.921c-.705-2.785-11.422-.015-10.689,2.864" transform="translate(737.116 220.027)" fill="#22242b"/>
        <path id="Path_650" data-name="Path 650" d="M858.6,258.034a244.006,244.006,0,0,0,26.53,59.331c1.826,2.946,11.864-.971,10.689-2.868a243.825,243.825,0,0,1-26.529-59.326c-.859-2.886-11.52.051-10.689,2.864" transform="translate(747.499 221.132)" fill="#22242b"/>
        <path id="Path_651" data-name="Path 651" d="M303.169,306.588a778.268,778.268,0,0,1,103.013-9.683c5.739-.157,8.519-7.137,1.186-6.936a778.3,778.3,0,0,0-103.013,9.682c-5.492.889-8.5,8.117-1.186,6.936" transform="translate(260.181 252.458)" fill="#22242b"/>
        <path id="Path_652" data-name="Path 652" d="M323.009,283.238l95.9,3.111c5.331.172,10.831-7.8,3.631-8.034l-95.9-3.105c-5.335-.172-10.831,7.8-3.631,8.031" transform="translate(278.225 239.609)" fill="#22242b"/>
        <path id="Path_653" data-name="Path 653" d="M362.2,275.819h29.511c2.108,0,6.115-.69,7.043-2.976.881-2.177-.748-3.367-2.957-3.367H366.286c-2.1,0-6.115.688-7.039,2.976-.881,2.177.748,3.367,2.958,3.367" transform="translate(312.564 234.619)" fill="#22242b"/>
        <path id="Path_654" data-name="Path 654" d="M403.55,285.089q11.134,30.717,22.261,61.438c1.841,5.081,12.5,2.131,10.689-2.864q-11.134-30.723-22.261-61.438c-1.841-5.084-12.5-2.131-10.689,2.864" transform="translate(351.17 243.415)" fill="#22242b"/>
        <path id="Path_655" data-name="Path 655" d="M395.96,302.644q6.934,22.274,13.871,44.544c.859,2.746,11.5-.258,10.689-2.864q-6.934-22.274-13.871-44.544c-.853-2.746-11.5.258-10.689,2.864" transform="translate(344.702 260.055)" fill="#22242b"/>
        <path id="Path_656" data-name="Path 656" d="M381.071,301.358a155.084,155.084,0,0,0,28.148,60.89c1.99,2.619,11.563-1.715,10.689-2.868A155.075,155.075,0,0,1,391.754,298.5c-.522-2.366-11.269.243-10.689,2.864" transform="translate(331.753 259.079)" fill="#22242b"/>
        <path id="Path_657" data-name="Path 657" d="M364.429,292.705q12.2,32.01,24.4,64.016c1.77,4.645,12.4,1.622,10.689-2.864q-12.2-32.011-24.4-64.016c-1.77-4.645-12.4-1.622-10.689,2.864" transform="translate(317.127 250.326)" fill="#22242b"/>
        <path id="Path_658" data-name="Path 658" d="M366.715,165.27a143.328,143.328,0,0,0,17.545,50.216c2.194,3.839,12.464.054,9.828-4.566A138.168,138.168,0,0,1,377.4,162.411c-.685-4.572-11.411-1.951-10.689,2.864" transform="translate(319.249 139.336)" fill="#22242b"/>
        <path id="Path_659" data-name="Path 659" d="M379.815,177a106.532,106.532,0,0,0,10.259,31.88c2.069,4.1,12.533.81,10.689-2.864A106.589,106.589,0,0,1,390.5,174.14c-.659-4.226-11.394-1.644-10.689,2.864" transform="translate(330.656 149.748)" fill="#22242b"/>
        <path id="Path_660" data-name="Path 660" d="M393.359,176.377a83.13,83.13,0,0,0,18.91,35.563c1.822,2.041,11.813-1.723,10.058-3.689a81.021,81.021,0,0,1-18.28-34.736c-.615-2.464-11.336.282-10.689,2.864" transform="translate(342.452 150.233)" fill="#22242b"/>
        <path id="Path_661" data-name="Path 661" d="M413.593,174.695q2.133,9.636,4.261,19.279c1.092,4.952,11.8,2.174,10.689-2.864q-2.133-9.636-4.261-19.279c-1.092-4.955-11.8-2.177-10.689,2.864" transform="translate(360.022 147.34)" fill="#22242b"/>
        <path id="Path_662" data-name="Path 662" d="M1119.189,136.652a122.8,122.8,0,0,1-24.255,49.8c-4.157,5.139,6.048,6.023,8.8,2.619a131.94,131.94,0,0,0,26.225-53.435c1.109-4.737-9.769-3.29-10.775,1.018" transform="translate(952.448 115.528)" fill="#22242b"/>
        <path id="Path_663" data-name="Path 663" d="M961.988,53.875a1185.329,1185.329,0,0,1,118.9,47.3c2.653,1.225,12.457-2.868,8.657-4.622A1186.2,1186.2,0,0,0,970.649,49.247c-2.761-.935-12.41,3.367-8.652,4.626" transform="translate(836.815 42.762)" fill="#22242b"/>
        <path id="Path_664" data-name="Path 664" d="M300.414,162.037a33.277,33.277,0,0,1-23.98,19.041c-1.99.395-5.081,2.432-4.433,4.834.688,2.585,4.312,2.353,6.255,1.97A45.474,45.474,0,0,0,310.564,163c2.5-5.288-8.265-4.952-10.148-.96" transform="translate(236.739 138.467)" fill="#22242b"/>
        <path id="Path_665" data-name="Path 665" d="M79.283,222.409c-8.951,3.741-15.738,12.049-13.13,22.214.655,2.546,11.362-.232,10.685-2.864-1.39-5.425.314-14.18,6.212-16.649,1-.419,4.411-1.665,3.141-3.212-1.122-1.375-5.747.024-6.91.509" transform="translate(57.103 192.683)" fill="#22242b"/>
        <path id="Path_666" data-name="Path 666" d="M19.995,311.693A19.577,19.577,0,0,1,8.687,327.838c-.584.247-2.535,1.164-2.267,2.131,1.919,6.921,11.108,4.9,15.863,2.735,1.4-.638,3.15-1.747,1.309-2.765-1.766-.984-5.872.638-7.47,1.367q1.905-.469,3.8-.948a3.944,3.944,0,0,1-1.457-.866,7.292,7.292,0,0,1-1.36-2.389q-1.134,1.069-2.267,2.131a24.919,24.919,0,0,0,15.841-20.4c.144-1.347-10.345-.352-10.689,2.864" transform="translate(5.566 268.375)" fill="#22242b"/>
        <path id="Path_667" data-name="Path 667" d="M477.272,259.2q.149,6.092.3,12.182c.054,2.346,7.658-.279,8.453-.619,5.578-2.4,12.2-.81,17.4,1.805,2.026,1.018,4.9.232,6.906-.522.483-.187,4.9-2.3,3.15-3.18-10.85-5.464-22.749-4.426-33.672.275l8.453-.619q-.149-6.092-.3-12.182c-.047-1.983-10.767-.3-10.689,2.864" transform="translate(415.535 222.44)" fill="#22242b"/>
        <path id="Path_668" data-name="Path 668" d="M497.576,305.46c-5.851,1.951-12.608,7.759-9.048,14.613,3.154,6.072,11.946,6.2,17.333,3.448,1.485-.748,4.325-2.432,2.817-4.422-1.351-1.786-5.5-.991-7.094-.187q-1.729.783.391.071a4.208,4.208,0,0,1-1.433-.6,4.924,4.924,0,0,1-1.712-1.955,5.088,5.088,0,0,1-.374-2.851c.1-.7,1.442-2.836.612-2.557,1.59-.533,5.221-1.888,4.6-4.215-.587-2.191-4.591-1.852-6.091-1.351" transform="translate(424.474 265.622)" fill="#22242b"/>
        <path id="Path_669" data-name="Path 669" d="M678.693,331.17a14.779,14.779,0,0,1,.784,15.48c-2.323,4.071,8.276,2.769,9.883-.039a17.684,17.684,0,0,0-.7-19.483c-1.844-2.682-12.221.767-9.965,4.042" transform="translate(590.624 283.977)" fill="#22242b"/>
        <path id="Path_670" data-name="Path 670" d="M828.957,139.782l-6.957.434c-1.485.09-7.094,1.031-7.584,3.105a21.792,21.792,0,0,0,.705,13.012c.831,2.245,7.191-.082,8.429-.709-3.352,1.7-2.875.15-.548,1.657a7.974,7.974,0,0,1,2.041,1.944,6.273,6.273,0,0,1,1.135,5.859c-.651,2.127,9.7.881,10.548-1.871a8.565,8.565,0,0,0-5-10.32c-4.473-2.146-10.122-.862-14.348,1.281l8.433-.709a20.138,20.138,0,0,1-.845-12.017q-3.791,1.557-7.584,3.105l6.957-.434c1.871-.114,6.091-.763,7.153-2.557,1.085-1.841-.935-1.88-2.535-1.783" transform="translate(708.482 121.674)" fill="#22242b"/>
        <path id="Path_671" data-name="Path 671" d="M952.4,166.543a4.538,4.538,0,0,1,.266,3.345,5.223,5.223,0,0,1-.81,1.394q-1.139.875.748,0c-2.413-.137-5.84.748-7,3.137-1.113,2.28.967,3.859,3.122,3.979,7.512.415,17.724-6.012,14.359-14.724-1.7-4.4-12.311-1.339-10.689,2.864" transform="translate(823.022 140.631)" fill="#22242b"/>
        <path id="Path_672" data-name="Path 672" d="M944.733,329.917q-.188,5.94-.374,11.877l5.938-4.136-9.024,1.309c-2.432.352-5.3,1.476-5.937,4.14a23.253,23.253,0,0,0,1.324,15.222c1.958,4.458,12.533,1.336,10.689-2.868a19.625,19.625,0,0,1-1.222-13.306l-5.937,4.136q4.512-.654,9.028-1.309c2.013-.294,5.851-1.512,5.938-4.14q.188-5.94.374-11.877c.168-5.277-10.65-3.534-10.8.952" transform="translate(813.729 283.581)" fill="#22242b"/>
        <path id="Path_673" data-name="Path 673" d="M1054.208,202.647a19.51,19.51,0,0,1,3.917,20.2c-1.042,2.806,9.449,1.571,10.623-1.594a21.761,21.761,0,0,0-4.544-22.541c-2.174-2.35-12.285,1.454-10,3.928" transform="translate(917.553 172.37)" fill="#22242b"/>
        <path id="Path_674" data-name="Path 674" d="M1153.443,336.674c-4.05-2.961-13.263.243-14.527,5.189-1.626,6.36,8.433,6.313,12.174,6.012q-1.535-.412-3.059-.831.2,3.614.408,7.226c.118,2.08,10.867.243,10.689-2.864q-.2-3.62-.408-7.226c-.058-1.027-2.546-.874-3.062-.834a6.921,6.921,0,0,1-5.006-.8c-.634-.49-2.041-3.236-.913-3.717l-5.393,1.446-.956.11c1.712,1.25,5.163.144,6.91-.513.677-.254,4.748-2.026,3.146-3.2" transform="translate(991.442 292.135)" fill="#22242b"/>
        <path id="Path_675" data-name="Path 675" d="M177.8,178.752c-2.5,9.041,6.235,15.713,14.488,15.339,2.245-.1,5.633-1.661,5.922-4.2.309-2.692-2.879-3.384-4.884-3.294-4.074.187-5.526-5.829-4.72-8.751.713-2.585-3.154-3.416-4.884-3.294a6.379,6.379,0,0,0-5.922,4.2" transform="translate(154.423 151.964)" fill="#22242b"/>
        <path id="Path_676" data-name="Path 676" d="M776.564,164.417a33.414,33.414,0,0,1-26.458,11.293c-2.3-.1-6.063.681-6.979,3.2a3.106,3.106,0,0,0,3.18,4.222,49.306,49.306,0,0,0,39.126-15.844c4.49-4.9-5.786-6.241-8.872-2.871" transform="translate(646.815 141.527)" fill="#22242b"/>
        <path id="Path_677" data-name="Path 677" d="M795.15,174.681a230.915,230.915,0,0,1-67.156,11.465c-5.747.129-8.515,7.108-1.186,6.936a241.274,241.274,0,0,0,70.06-12c6.327-2.073,4.766-8.523-1.715-6.405" transform="translate(628.946 151.718)" fill="#22242b"/>
        <path id="Path_678" data-name="Path 678" d="M762.521,186.086l-8.719,1.994c-2.159.494-4.987,2.581-4.359,5.112.659,2.647,4.282,2.718,6.334,2.245l8.719-1.99c2.159-.494,4.987-2.585,4.355-5.116-.658-2.643-4.276-2.718-6.33-2.245" transform="translate(652.424 161.821)" fill="#22242b"/>
        <path id="Path_679" data-name="Path 679" d="M673.486,179.154c-15.938,26.687-57,36.478-85.633,39.761-5.719.658-8.418,8.089-1.1,7.247,33.212-3.82,78.442-15.218,96.879-46.087,2.911-4.864-7.92-4.637-10.141-.92" transform="translate(506.989 153.575)" fill="#22242b"/>
        <path id="Path_680" data-name="Path 680" d="M637.113,166.742a38.013,38.013,0,0,1-15.225,15.064c-1.829.978-1.309,1.884.529,1.974a15.648,15.648,0,0,0,7.556-2.026,43.752,43.752,0,0,0,17.646-17.034c.866-1.525-3.771-.791-4.192-.716-1.719.312-5.324.991-6.313,2.739" transform="translate(540.454 142.579)" fill="#22242b"/>
      </g>
    </g>
  </g>
</svg>
