<svg id="Group_898" data-name="Group 898" xmlns="http://www.w3.org/2000/svg" xmlns:xlink="http://www.w3.org/1999/xlink" width="1235.201" height="682.302" viewBox="0 0 1235.201 682.302">
  <defs>
    <clipPath id="clip-path">
      <rect id="Rectangle_319" data-name="Rectangle 319" width="1235.201" height="682.302" fill="none"/>
    </clipPath>
  </defs>
  <g id="Group_897" data-name="Group 897" clip-path="url(#clip-path)">
    <path id="Path_1574" data-name="Path 1574" d="M55.674,104.029c3.217-4.28,9.267-1.682,9.267-1.682s-3.953-5.388-.961-9.369c-2.955,3.931-9.679,1.373-9.679,1.373s4.627,5.348,1.373,9.678" fill="#ffd512"/>
    <path id="Path_1575" data-name="Path 1575" d="M55.674,104.029c3.217-4.28,9.267-1.682,9.267-1.682s-3.953-5.388-.961-9.369c-2.955,3.931-9.679,1.373-9.679,1.373S58.928,99.7,55.674,104.029Z" fill="none" stroke="#142328" stroke-miterlimit="10" stroke-width="1"/>
    <path id="Path_1576" data-name="Path 1576" d="M23.786,48.657C27.1,44.534,32.994,47.3,32.994,47.3s-3.729-5.451-.644-9.286c-3.047,3.787-9.6,1.041-9.6,1.041s4.4,5.433,1.041,9.6" fill="#ffd512"/>
    <path id="Path_1577" data-name="Path 1577" d="M23.786,48.657C27.1,44.534,32.994,47.3,32.994,47.3s-3.729-5.451-.644-9.286c-3.047,3.787-9.6,1.041-9.6,1.041S27.141,44.486,23.786,48.657Z" fill="none" stroke="#142328" stroke-miterlimit="10" stroke-width="1"/>
    <path id="Path_1578" data-name="Path 1578" d="M49.208,25.657c3.054-3.082,7.626-.33,7.626-.33s-2.581-4.761.26-7.628c-2.806,2.83-7.922.036-7.922.036s3.126,4.8.036,7.922" fill="#ffd512"/>
    <path id="Path_1579" data-name="Path 1579" d="M49.208,25.657c3.054-3.082,7.626-.33,7.626-.33s-2.581-4.761.26-7.628c-2.806,2.83-7.922.036-7.922.036S52.3,22.539,49.208,25.657Z" fill="none" stroke="#142328" stroke-miterlimit="10" stroke-width="1"/>
    <path id="Path_1580" data-name="Path 1580" d="M98.563,22.123c2.442-2.5,6.141-.31,6.141-.31s-2.107-3.821.165-6.146c-2.244,2.3-6.382.075-6.382.075s2.547,3.851.076,6.381" fill="#ffd512"/>
    <path id="Path_1581" data-name="Path 1581" d="M98.563,22.123c2.442-2.5,6.141-.31,6.141-.31s-2.107-3.821.165-6.146c-2.244,2.3-6.382.075-6.382.075S101.034,19.593,98.563,22.123Z" fill="none" stroke="#142328" stroke-miterlimit="10" stroke-width="1"/>
    <path id="Path_1582" data-name="Path 1582" d="M102.438,78.124s-3.221-3.978-1.078-7.133c-2.117,3.115-7.355,1.4-7.355,1.4s3.736,3.924,1.4,7.355c2.305-3.392,7.029-1.625,7.029-1.625" fill="#ffd512"/>
    <path id="Path_1583" data-name="Path 1583" d="M102.438,78.124s-3.221-3.978-1.078-7.133c-2.117,3.115-7.355,1.4-7.355,1.4s3.736,3.924,1.4,7.355C97.714,76.357,102.438,78.124,102.438,78.124Z" fill="none" stroke="#142328" stroke-miterlimit="10" stroke-width="1"/>
    <path id="Path_1584" data-name="Path 1584" d="M47.589,144.353s-2.521,11.979-11.9,12.032c9.267-.053,12.027,11.005,12.027,11.005S51,156.3,59.621,156.249c-8.512.048-12.032-11.9-12.032-11.9" fill="#ffd512"/>
    <path id="Path_1585" data-name="Path 1585" d="M47.589,144.353s-2.521,11.979-11.9,12.032c9.267-.053,12.027,11.005,12.027,11.005S51,156.3,59.621,156.249C51.109,156.3,47.589,144.353,47.589,144.353Z" fill="none" stroke="#142328" stroke-miterlimit="10" stroke-width="1"/>
    <path id="Path_1586" data-name="Path 1586" d="M51.508,206.388c-3.754-.345-4.792-5.763-4.792-5.763s-1.627,5.173-5.762,4.792c4.087.376,4.828,5.37,4.828,5.37s1.924-4.749,5.726-4.4" fill="#ffd512"/>
    <path id="Path_1587" data-name="Path 1587" d="M51.508,206.388c-3.754-.345-4.792-5.763-4.792-5.763s-1.627,5.173-5.762,4.792c4.087.376,4.828,5.37,4.828,5.37S47.706,206.038,51.508,206.388Z" fill="none" stroke="#142328" stroke-miterlimit="10" stroke-width="1"/>
    <path id="Path_1588" data-name="Path 1588" d="M111.336,151.992s.986,7.131-4.192,9.024c5.118-1.871,8.844,3.7,8.844,3.7s-.389-6.791,4.372-8.532c-4.7,1.719-9.024-4.192-9.024-4.192" fill="#ffd512"/>
    <path id="Path_1589" data-name="Path 1589" d="M111.336,151.992s.986,7.131-4.192,9.024c5.118-1.871,8.844,3.7,8.844,3.7s-.389-6.791,4.372-8.532C115.658,157.9,111.336,151.992,111.336,151.992Z" fill="none" stroke="#142328" stroke-miterlimit="10" stroke-width="1"/>
    <path id="Path_1590" data-name="Path 1590" d="M208.279,71.04s1.677,4.03-1.068,5.939c2.714-1.887,5.757.807,5.757.807s-1.274-3.924,1.25-5.678c-2.493,1.732-5.939-1.068-5.939-1.068" fill="#ffd512"/>
    <path id="Path_1591" data-name="Path 1591" d="M208.279,71.04s1.677,4.03-1.068,5.939c2.714-1.887,5.757.807,5.757.807s-1.274-3.924,1.25-5.678C211.725,73.84,208.279,71.04,208.279,71.04Z" fill="none" stroke="#142328" stroke-miterlimit="10" stroke-width="1"/>
    <path id="Path_1592" data-name="Path 1592" d="M297.023,54.711s1.143-6.855,6.28-7.517c-5.072.653-8.047-6.212-8.047-6.212s-.625,7.329-6.212,8.048c5.522-.711,7.979,5.681,7.979,5.681" fill="#ffd512"/>
    <path id="Path_1593" data-name="Path 1593" d="M297.023,54.711s1.143-6.855,6.28-7.517c-5.072.653-8.047-6.212-8.047-6.212s-.625,7.329-6.212,8.048C294.566,48.319,297.023,54.711,297.023,54.711Z" fill="none" stroke="#142328" stroke-miterlimit="10" stroke-width="1"/>
    <path id="Path_1594" data-name="Path 1594" d="M280.488,92.561s-.462,5.42-4.594,5.952c4.084-.526,5.9,4.2,5.9,4.2s.846-5.07,4.645-5.559c-3.752.483-5.952-4.594-5.952-4.594" fill="#ffd512"/>
    <path id="Path_1595" data-name="Path 1595" d="M280.488,92.561s-.462,5.42-4.594,5.952c4.084-.526,5.9,4.2,5.9,4.2s.846-5.07,4.645-5.559C282.688,97.638,280.488,92.561,280.488,92.561Z" fill="none" stroke="#142328" stroke-miterlimit="10" stroke-width="1"/>
    <path id="Path_1596" data-name="Path 1596" d="M181.684,205.282c-4.8-.8-5.627-7.864-5.627-7.864s-2.578,6.5-7.864,5.627c5.225.866,5.711,7.362,5.711,7.362s2.92-5.931,7.78-5.125" fill="#ffd512"/>
    <path id="Path_1597" data-name="Path 1597" d="M181.684,205.282c-4.8-.8-5.627-7.864-5.627-7.864s-2.578,6.5-7.864,5.627c5.225.866,5.711,7.362,5.711,7.362S176.824,204.476,181.684,205.282Z" fill="none" stroke="#142328" stroke-miterlimit="10" stroke-width="1"/>
    <path id="Path_1598" data-name="Path 1598" d="M68.622,345.1s-.97,4.256-4.313,4.219c3.3.037,4.223,4,4.223,4s1.236-3.935,4.309-3.9c-3.035-.033-4.219-4.313-4.219-4.313" fill="#ffd512"/>
    <path id="Path_1599" data-name="Path 1599" d="M68.622,345.1s-.97,4.256-4.313,4.219c3.3.037,4.223,4,4.223,4s1.236-3.935,4.309-3.9C69.806,349.381,68.622,345.1,68.622,345.1Z" fill="none" stroke="#142328" stroke-miterlimit="10" stroke-width="1"/>
    <path id="Path_1600" data-name="Path 1600" d="M49.84,292.851s1.7-3.757,4.751-3.351c-3.009-.4-3.666-4.792-3.666-4.792s-1.479,4.107-4.793,3.665c3.276.437,3.708,4.478,3.708,4.478" fill="#ffd512"/>
    <path id="Path_1601" data-name="Path 1601" d="M49.84,292.851s1.7-3.757,4.751-3.351c-3.009-.4-3.666-4.792-3.666-4.792s-1.479,4.107-4.793,3.665C49.408,288.81,49.84,292.851,49.84,292.851Z" fill="none" stroke="#142328" stroke-miterlimit="10" stroke-width="1"/>
    <path id="Path_1602" data-name="Path 1602" d="M141.73,259.487s-4.5,9.453-12.3,7.617c7.714,1.815,7.791,11.562,7.791,11.562s4.953-8.564,12.129-6.875c-7.086-1.668-7.617-12.3-7.617-12.3" fill="#ffd512"/>
    <path id="Path_1603" data-name="Path 1603" d="M141.73,259.487s-4.5,9.453-12.3,7.617c7.714,1.815,7.791,11.562,7.791,11.562s4.953-8.564,12.129-6.875C142.261,270.123,141.73,259.487,141.73,259.487Z" fill="none" stroke="#142328" stroke-miterlimit="10" stroke-width="1"/>
    <path id="Path_1604" data-name="Path 1604" d="M234.808,293.281c-2.129-2.248.168-6.153.168-6.153s-3.808,2.309-6.153-.167c2.318,2.447.067,5.93.067,5.93s3.762-1.887,5.918.39" fill="#ffd512"/>
    <path id="Path_1605" data-name="Path 1605" d="M234.808,293.281c-2.129-2.248.168-6.153.168-6.153s-3.808,2.309-6.153-.167c2.318,2.447.067,5.93.067,5.93S232.652,291,234.808,293.281Z" fill="none" stroke="#142328" stroke-miterlimit="10" stroke-width="1"/>
    <path id="Path_1606" data-name="Path 1606" d="M31.123,478.02s.424,6.39-4.29,7.743c4.66-1.337,7.614,3.842,7.614,3.842s.084-6.051,4.419-7.3c-4.28,1.229-7.743-4.29-7.743-4.29" fill="#ffd512"/>
    <path id="Path_1607" data-name="Path 1607" d="M31.123,478.02s.424,6.39-4.29,7.743c4.66-1.337,7.614,3.842,7.614,3.842s.084-6.051,4.419-7.3C34.586,483.539,31.123,478.02,31.123,478.02Z" fill="none" stroke="#142328" stroke-miterlimit="10" stroke-width="1"/>
    <path id="Path_1608" data-name="Path 1608" d="M74.066,497.532s-3.219,5.139-7.587,3.563c4.318,1.558,3.712,7.172,3.712,7.172s3.421-4.6,7.438-3.148c-3.967-1.431-3.563-7.587-3.563-7.587" fill="#ffd512"/>
    <path id="Path_1609" data-name="Path 1609" d="M74.066,497.532s-3.219,5.139-7.587,3.563c4.318,1.558,3.712,7.172,3.712,7.172s3.421-4.6,7.438-3.148C73.662,503.688,74.066,497.532,74.066,497.532Z" fill="none" stroke="#142328" stroke-miterlimit="10" stroke-width="1"/>
    <path id="Path_1610" data-name="Path 1610" d="M200.963,433.285s-.371-4.108,2.48-5.258c-2.815,1.135-5.553-2.361-5.553-2.361s.74,4.3-2.361,5.552c3.065-1.236,5.434,2.067,5.434,2.067" fill="#ffd512"/>
    <path id="Path_1611" data-name="Path 1611" d="M200.963,433.285s-.371-4.108,2.48-5.258c-2.815,1.135-5.553-2.361-5.553-2.361s.74,4.3-2.361,5.552C198.594,429.982,200.963,433.285,200.963,433.285Z" fill="none" stroke="#142328" stroke-miterlimit="10" stroke-width="1"/>
    <path id="Path_1612" data-name="Path 1612" d="M330.487,352.971s6.171,4.459,3.833,9.8c2.311-5.28,9.293-4.055,9.293-4.055s-5.475-4.667-3.326-9.578c-2.123,4.85-9.8,3.833-9.8,3.833" fill="#ffd512"/>
    <path id="Path_1613" data-name="Path 1613" d="M330.487,352.971s6.171,4.459,3.833,9.8c2.311-5.28,9.293-4.055,9.293-4.055s-5.475-4.667-3.326-9.578C338.164,353.988,330.487,352.971,330.487,352.971Z" fill="none" stroke="#142328" stroke-miterlimit="10" stroke-width="1"/>
    <path id="Path_1614" data-name="Path 1614" d="M468.533,251.412s1.294-4.734,4.949-4.831c-3.61.1-5.209-4.94-5.209-4.94s-.963,5.1-4.939,5.209c3.93-.1,5.2,4.562,5.2,4.562" fill="#ffd512"/>
    <path id="Path_1615" data-name="Path 1615" d="M468.533,251.412s1.294-4.734,4.949-4.831c-3.61.1-5.209-4.94-5.209-4.94s-.963,5.1-4.939,5.209C467.264,246.746,468.533,251.412,468.533,251.412Z" fill="none" stroke="#142328" stroke-miterlimit="10" stroke-width="1"/>
    <path id="Path_1616" data-name="Path 1616" d="M562.793,226.181s-2.534,3.555-5.605,2.234c3.036,1.306,2.359,5.313,2.359,5.313s2.656-3.156,5.48-1.942c-2.789-1.2-2.234-5.6-2.234-5.6" fill="#ffd512"/>
    <path id="Path_1617" data-name="Path 1617" d="M562.793,226.181s-2.534,3.555-5.605,2.234c3.036,1.306,2.359,5.313,2.359,5.313s2.656-3.156,5.48-1.942C562.238,230.587,562.793,226.181,562.793,226.181Z" fill="none" stroke="#142328" stroke-miterlimit="10" stroke-width="1"/>
    <path id="Path_1618" data-name="Path 1618" d="M507.455,329.994s-1.1,7.683-7.033,8.1c5.861-.414,8.062,6.47,8.062,6.47s1.621-7.154,7.073-7.539c-5.384.38-8.1-7.033-8.1-7.033" fill="#ffd512"/>
    <path id="Path_1619" data-name="Path 1619" d="M507.455,329.994s-1.1,7.683-7.033,8.1c5.861-.414,8.062,6.47,8.062,6.47s1.621-7.154,7.073-7.539C510.173,337.407,507.455,329.994,507.455,329.994Z" fill="none" stroke="#142328" stroke-miterlimit="10" stroke-width="1"/>
    <path id="Path_1620" data-name="Path 1620" d="M426.505,476.753s-3.164,3.433-6.246,1.62c3.046,1.792,1.792,5.954,1.792,5.954s3.24-2.994,6.074-1.328c-2.8-1.645-1.62-6.246-1.62-6.246" fill="#ffd512"/>
    <path id="Path_1621" data-name="Path 1621" d="M426.505,476.753s-3.164,3.433-6.246,1.62c3.046,1.792,1.792,5.954,1.792,5.954s3.24-2.994,6.074-1.328C425.327,481.354,426.505,476.753,426.505,476.753Z" fill="none" stroke="#142328" stroke-miterlimit="10" stroke-width="1"/>
    <path id="Path_1622" data-name="Path 1622" d="M504.275,522.452s.263,4.357-2.956,5.26c3.182-.892,5.174,2.651,5.174,2.651s.082-4.125,3.042-4.955c-2.923.82-5.26-2.956-5.26-2.956" fill="#ffd512"/>
    <path id="Path_1623" data-name="Path 1623" d="M504.275,522.452s.263,4.357-2.956,5.26c3.182-.892,5.174,2.651,5.174,2.651s.082-4.125,3.042-4.955C506.612,526.228,504.275,522.452,504.275,522.452Z" fill="none" stroke="#142328" stroke-miterlimit="10" stroke-width="1"/>
    <path id="Path_1624" data-name="Path 1624" d="M675.624,474.122s-1.386,4.15-4.717,3.784c3.292.361,3.819,4.4,3.819,4.4s1.62-3.8,4.682-3.468c-3.024-.332-3.784-4.717-3.784-4.717" fill="#ffd512"/>
    <path id="Path_1625" data-name="Path 1625" d="M675.624,474.122s-1.386,4.15-4.717,3.784c3.292.361,3.819,4.4,3.819,4.4s1.62-3.8,4.682-3.468C676.384,478.507,675.624,474.122,675.624,474.122Z" fill="none" stroke="#142328" stroke-miterlimit="10" stroke-width="1"/>
    <path id="Path_1626" data-name="Path 1626" d="M835.981,445.5s-.674,4.377-4.059,4.581c3.346-.2,4.562,3.737,4.562,3.737s.966-4.071,4.078-4.259c-3.073.186-4.581-4.059-4.581-4.059" fill="#ffd512"/>
    <path id="Path_1627" data-name="Path 1627" d="M835.981,445.5s-.674,4.377-4.059,4.581c3.346-.2,4.562,3.737,4.562,3.737s.966-4.071,4.078-4.259C837.489,449.749,835.981,445.5,835.981,445.5Z" fill="none" stroke="#142328" stroke-miterlimit="10" stroke-width="1"/>
    <path id="Path_1628" data-name="Path 1628" d="M888.278,572.621s-1.682,4.028-4.969,3.422c3.25.6,3.479,4.657,3.479,4.657s1.889-3.667,4.912-3.11c-2.985-.55-3.422-4.969-3.422-4.969" fill="#ffd512"/>
    <path id="Path_1629" data-name="Path 1629" d="M888.278,572.621s-1.682,4.028-4.969,3.422c3.25.6,3.479,4.657,3.479,4.657s1.889-3.667,4.912-3.11C888.715,577.04,888.278,572.621,888.278,572.621Z" fill="none" stroke="#142328" stroke-miterlimit="10" stroke-width="1"/>
    <path id="Path_1630" data-name="Path 1630" d="M1016.638,585.121s-.839,10.692-8.977,11.8c8.045-1.092,11.692,8.2,11.692,8.2s1.6-10.008,9.082-11.024c-7.391,1-11.8-8.977-11.8-8.977" fill="#ffd512"/>
    <path id="Path_1631" data-name="Path 1631" d="M1016.638,585.121s-.839,10.692-8.977,11.8c8.045-1.092,11.692,8.2,11.692,8.2s1.6-10.008,9.082-11.024C1021.044,595.1,1016.638,585.121,1016.638,585.121Z" fill="none" stroke="#142328" stroke-miterlimit="10" stroke-width="1"/>
    <path id="Path_1632" data-name="Path 1632" d="M1165.319,604.82s-.471,5.525-4.683,6.067c4.163-.536,6.015,4.282,6.015,4.282s.862-5.168,4.735-5.666c-3.824.492-6.067-4.683-6.067-4.683" fill="#ffd512"/>
    <path id="Path_1633" data-name="Path 1633" d="M1165.319,604.82s-.471,5.525-4.683,6.067c4.163-.536,6.015,4.282,6.015,4.282s.862-5.168,4.735-5.666C1167.562,609.995,1165.319,604.82,1165.319,604.82Z" fill="none" stroke="#142328" stroke-miterlimit="10" stroke-width="1"/>
    <path id="Path_1634" data-name="Path 1634" d="M1230.36,595.874s-.371,4.35-3.687,4.777c3.278-.422,4.736,3.371,4.736,3.371s.679-4.068,3.727-4.461c-3.01.388-4.776-3.687-4.776-3.687" fill="#ffd512"/>
    <path id="Path_1635" data-name="Path 1635" d="M1230.36,595.874s-.371,4.35-3.687,4.777c3.278-.422,4.736,3.371,4.736,3.371s.679-4.068,3.727-4.461C1232.126,599.949,1230.36,595.874,1230.36,595.874Z" fill="none" stroke="#142328" stroke-miterlimit="10" stroke-width="1"/>
    <path id="Path_1636" data-name="Path 1636" d="M1208.476,447.711s.474-4.1,3.5-4.643c-2.988.538-4.956-3.442-4.956-3.442s-.152,4.362-3.442,4.955c3.252-.586,4.9,3.13,4.9,3.13" fill="#ffd512"/>
    <path id="Path_1637" data-name="Path 1637" d="M1208.476,447.711s.474-4.1,3.5-4.643c-2.988.538-4.956-3.442-4.956-3.442s-.152,4.362-3.442,4.955C1206.829,443.995,1208.476,447.711,1208.476,447.711Z" fill="none" stroke="#142328" stroke-miterlimit="10" stroke-width="1"/>
    <path id="Path_1638" data-name="Path 1638" d="M1206.618,258.395c-3.036.008-4.278-4.255-4.278-4.255s-.912,4.269-4.255,4.278c3.3-.009,4.277,3.938,4.277,3.938s1.182-3.953,4.256-3.961" fill="#ffd512"/>
    <path id="Path_1639" data-name="Path 1639" d="M1206.618,258.395c-3.036.008-4.278-4.255-4.278-4.255s-.912,4.269-4.255,4.278c3.3-.009,4.277,3.938,4.277,3.938S1203.544,258.4,1206.618,258.395Z" fill="none" stroke="#142328" stroke-miterlimit="10" stroke-width="1"/>
    <path id="Path_1640" data-name="Path 1640" d="M1073.971,264.928s-2.341,3.685-5.478,2.529c3.1,1.142,2.638,5.18,2.638,5.18s2.484-3.293,5.369-2.23c-2.848-1.05-2.529-5.479-2.529-5.479" fill="#ffd512"/>
    <path id="Path_1641" data-name="Path 1641" d="M1073.971,264.928s-2.341,3.685-5.478,2.529c3.1,1.142,2.638,5.18,2.638,5.18s2.484-3.293,5.369-2.23C1073.652,269.357,1073.971,264.928,1073.971,264.928Z" fill="none" stroke="#142328" stroke-miterlimit="10" stroke-width="1"/>
    <path id="Path_1642" data-name="Path 1642" d="M869.19,252.923s2.39,3.78-.053,6.181c2.415-2.373,5.953-.179,5.953-.179s-1.965-3.741.281-5.949c-2.217,2.18-6.181-.053-6.181-.053" fill="#ffd512"/>
    <path id="Path_1643" data-name="Path 1643" d="M869.19,252.923s2.39,3.78-.053,6.181c2.415-2.373,5.953-.179,5.953-.179s-1.965-3.741.281-5.949C873.154,255.156,869.19,252.923,869.19,252.923Z" fill="none" stroke="#142328" stroke-miterlimit="10" stroke-width="1"/>
    <path id="Path_1644" data-name="Path 1644" d="M719.582,172.036s-.117,7.171-5.5,8.245c5.325-1.061,8.142,4.992,8.142,4.992s.654-6.745,5.607-7.733c-4.891.975-8.245-5.5-8.245-5.5" fill="#ffd512"/>
    <path id="Path_1645" data-name="Path 1645" d="M719.582,172.036s-.117,7.171-5.5,8.245c5.325-1.061,8.142,4.992,8.142,4.992s.654-6.745,5.607-7.733C722.936,178.515,719.582,172.036,719.582,172.036Z" fill="none" stroke="#142328" stroke-miterlimit="10" stroke-width="1"/>
    <path id="Path_1646" data-name="Path 1646" d="M826.883,321.567s-.117,4.364-3.4,4.983c3.248-.612,4.924,3.091,4.924,3.091s.441-4.1,3.462-4.671c-2.983.562-4.983-3.4-4.983-3.4" fill="#ffd512"/>
    <path id="Path_1647" data-name="Path 1647" d="M826.883,321.567s-.117,4.364-3.4,4.983c3.248-.612,4.924,3.091,4.924,3.091s.441-4.1,3.462-4.671C828.883,325.532,826.883,321.567,826.883,321.567Z" fill="none" stroke="#142328" stroke-miterlimit="10" stroke-width="1"/>
    <path id="Path_1648" data-name="Path 1648" d="M948.4,374.234c3.216-.762,5.062,2.859,5.062,2.859s.25-4.117,3.242-4.825c-2.954.7-5.135-3.169-5.135-3.169s.084,4.365-3.169,5.135" fill="#ffd512"/>
    <path id="Path_1649" data-name="Path 1649" d="M948.4,374.234c3.216-.762,5.062,2.859,5.062,2.859s.25-4.117,3.242-4.825c-2.954.7-5.135-3.169-5.135-3.169S951.657,373.464,948.4,374.234Z" fill="none" stroke="#142328" stroke-miterlimit="10" stroke-width="1"/>
    <path id="Path_1650" data-name="Path 1650" d="M1061.856,458.881s-.723,6.295-5.552,6.774c4.774-.473,6.728,5.093,6.728,5.093s1.158-5.874,5.6-6.315c-4.385.435-6.774-5.552-6.774-5.552" fill="#ffd512"/>
    <path id="Path_1651" data-name="Path 1651" d="M1061.856,458.881s-.723,6.295-5.552,6.774c4.774-.473,6.728,5.093,6.728,5.093s1.158-5.874,5.6-6.315C1064.245,464.868,1061.856,458.881,1061.856,458.881Z" fill="none" stroke="#142328" stroke-miterlimit="10" stroke-width="1"/>
    <path id="Path_1652" data-name="Path 1652" d="M272.96,625.476s-1.51,4.1-4.821,3.629c3.272.461,3.673,4.506,3.673,4.506s1.733-3.744,4.777-3.314c-3.006-.424-3.629-4.821-3.629-4.821" fill="#ffd512"/>
    <path id="Path_1653" data-name="Path 1653" d="M272.96,625.476s-1.51,4.1-4.821,3.629c3.272.461,3.673,4.506,3.673,4.506s1.733-3.744,4.777-3.314C273.583,629.873,272.96,625.476,272.96,625.476Z" fill="none" stroke="#142328" stroke-miterlimit="10" stroke-width="1"/>
    <path id="Path_1654" data-name="Path 1654" d="M303.686,645.494s-1.3,4.167-4.632,3.867c3.291.3,3.9,4.315,3.9,4.315s1.542-3.826,4.6-3.55c-3.024-.272-3.867-4.632-3.867-4.632" fill="#ffd512"/>
    <path id="Path_1655" data-name="Path 1655" d="M303.686,645.494s-1.3,4.167-4.632,3.867c3.291.3,3.9,4.315,3.9,4.315s1.542-3.826,4.6-3.55C304.529,649.854,303.686,645.494,303.686,645.494Z" fill="none" stroke="#142328" stroke-miterlimit="10" stroke-width="1"/>
    <path id="Path_1656" data-name="Path 1656" d="M346.755,624.142s-.082,4.365-3.362,5.011c3.243-.639,4.949,3.05,4.949,3.05s.408-4.1,3.424-4.7c-2.979.586-5.011-3.362-5.011-3.362" fill="#ffd512"/>
    <path id="Path_1657" data-name="Path 1657" d="M346.755,624.142s-.082,4.365-3.362,5.011c3.243-.639,4.949,3.05,4.949,3.05s.408-4.1,3.424-4.7C348.787,628.09,346.755,624.142,346.755,624.142Z" fill="none" stroke="#142328" stroke-miterlimit="10" stroke-width="1"/>
    <path id="Path_1658" data-name="Path 1658" d="M574.919,640.982s2.222,3.757-.229,6.03c2.423-2.246,5.813,0,5.813,0s-1.808-3.708.445-5.8c-2.226,2.063-6.029-.23-6.029-.23" fill="#ffd512"/>
    <path id="Path_1659" data-name="Path 1659" d="M574.919,640.982s2.222,3.757-.229,6.03c2.423-2.246,5.813,0,5.813,0s-1.808-3.708.445-5.8C578.722,643.275,574.919,640.982,574.919,640.982Z" fill="none" stroke="#142328" stroke-miterlimit="10" stroke-width="1"/>
    <path id="Path_1660" data-name="Path 1660" d="M627.485,638.736s.448,4.342-2.729,5.381c3.141-1.027,5.282,2.428,5.282,2.428s-.093-4.124,2.828-5.079c-2.885.943-5.381-2.73-5.381-2.73" fill="#ffd512"/>
    <path id="Path_1661" data-name="Path 1661" d="M627.485,638.736s.448,4.342-2.729,5.381c3.141-1.027,5.282,2.428,5.282,2.428s-.093-4.124,2.828-5.079C629.981,642.409,627.485,638.736,627.485,638.736Z" fill="none" stroke="#142328" stroke-miterlimit="10" stroke-width="1"/>
    <path id="Path_1662" data-name="Path 1662" d="M707.969,625.041s-.607,4.323-3.942,4.569c3.3-.243,4.546,3.624,4.546,3.624s.9-4.026,3.965-4.251c-3.028.223-4.569-3.942-4.569-3.942" fill="#ffd512"/>
    <path id="Path_1663" data-name="Path 1663" d="M707.969,625.041s-.607,4.323-3.942,4.569c3.3-.243,4.546,3.624,4.546,3.624s.9-4.026,3.965-4.251C709.51,629.206,707.969,625.041,707.969,625.041Z" fill="none" stroke="#142328" stroke-miterlimit="10" stroke-width="1"/>
    <path id="Path_1664" data-name="Path 1664" d="M750.214,560.756s-1.344,4.212-4.714,3.889c3.331.319,3.919,4.394,3.919,4.394s1.584-3.866,4.684-3.568c-3.061-.294-3.889-4.715-3.889-4.715" fill="#ffd512"/>
    <path id="Path_1665" data-name="Path 1665" d="M750.214,560.756s-1.344,4.212-4.714,3.889c3.331.319,3.919,4.394,3.919,4.394s1.584-3.866,4.684-3.568C751.042,565.177,750.214,560.756,750.214,560.756Z" fill="none" stroke="#142328" stroke-miterlimit="10" stroke-width="1"/>
    <path id="Path_1666" data-name="Path 1666" d="M751.466,465.506s.374-6.365,5-7.469c-4.564,1.09-7.947-4.882-7.947-4.882s.144,6.746-4.882,7.947c4.968-1.187,7.833,4.4,7.833,4.4" fill="#ffd512"/>
    <path id="Path_1667" data-name="Path 1667" d="M751.466,465.506s.374-6.365,5-7.469c-4.564,1.09-7.947-4.882-7.947-4.882s.144,6.746-4.882,7.947C748.6,459.915,751.466,465.506,751.466,465.506Z" fill="none" stroke="#142328" stroke-miterlimit="10" stroke-width="1"/>
    <path id="Path_1668" data-name="Path 1668" d="M138.014,621.851s-2.14,7.181-7.862,6.742c5.656.434,6.784,7.318,6.784,7.318s2.559-6.6,7.82-6.2c-5.195-.4-6.742-7.862-6.742-7.862" fill="#ffd512"/>
    <path id="Path_1669" data-name="Path 1669" d="M138.014,621.851s-2.14,7.181-7.862,6.742c5.656.434,6.784,7.318,6.784,7.318s2.559-6.6,7.82-6.2C139.561,629.315,138.014,621.851,138.014,621.851Z" fill="none" stroke="#142328" stroke-miterlimit="10" stroke-width="1"/>
    <path id="Path_1670" data-name="Path 1670" d="M107.7,611.272s-2.348,7.526-8.361,6.987c5.944.532,7.037,7.79,7.037,7.79s2.782-6.911,8.311-6.415c-5.46-.49-6.987-8.362-6.987-8.362" fill="#ffd512"/>
    <path id="Path_1671" data-name="Path 1671" d="M107.7,611.272s-2.348,7.526-8.361,6.987c5.944.532,7.037,7.79,7.037,7.79s2.782-6.911,8.311-6.415C109.228,619.144,107.7,611.272,107.7,611.272Z" fill="none" stroke="#142328" stroke-miterlimit="10" stroke-width="1"/>
    <path id="Path_1672" data-name="Path 1672" d="M50.79,584.479s-.728,4.7-4.363,4.916c3.594-.214,4.9,4.017,4.9,4.017s1.041-4.371,4.384-4.57c-3.3.2-4.916-4.363-4.916-4.363" fill="#ffd512"/>
    <path id="Path_1673" data-name="Path 1673" d="M50.79,584.479s-.728,4.7-4.363,4.916c3.594-.214,4.9,4.017,4.9,4.017s1.041-4.371,4.384-4.57C52.4,589.039,50.79,584.479,50.79,584.479Z" fill="none" stroke="#142328" stroke-miterlimit="10" stroke-width="1"/>
    <path id="Path_1674" data-name="Path 1674" d="M296.085,517.6s1.629,7.331-3.594,9.738c5.163-2.38,9.509,3.1,9.509,3.1s-.98-7.028,3.823-9.241c-4.743,2.185-9.738-3.594-9.738-3.594" fill="#ffd512"/>
    <path id="Path_1675" data-name="Path 1675" d="M296.085,517.6s1.629,7.331-3.594,9.738c5.163-2.38,9.509,3.1,9.509,3.1s-.98-7.028,3.823-9.241C301.08,523.38,296.085,517.6,296.085,517.6Z" fill="none" stroke="#142328" stroke-miterlimit="10" stroke-width="1"/>
    <path id="Path_1676" data-name="Path 1676" d="M336.42,489.693s-4.477,8.888-11.855,6.977c7.294,1.889,7.159,11.153,7.159,11.153s4.889-8.033,11.673-6.275c-6.7-1.736-6.977-11.855-6.977-11.855" fill="#ffd512"/>
    <path id="Path_1677" data-name="Path 1677" d="M336.42,489.693s-4.477,8.888-11.855,6.977c7.294,1.889,7.159,11.153,7.159,11.153s4.889-8.033,11.673-6.275C336.7,499.812,336.42,489.693,336.42,489.693Z" fill="none" stroke="#142328" stroke-miterlimit="10" stroke-width="1"/>
    <path id="Path_1678" data-name="Path 1678" d="M438.375,79.669s1.222-8.131,7.285-9.012c-5.987.87-9.638-7.194-9.638-7.194s-.6,8.681-7.194,9.638c6.519-.946,9.547,6.568,9.547,6.568" fill="#ffd512"/>
    <path id="Path_1679" data-name="Path 1679" d="M438.375,79.669s1.222-8.131,7.285-9.012c-5.987.87-9.638-7.194-9.638-7.194s-.6,8.681-7.194,9.638C435.347,72.155,438.375,79.669,438.375,79.669Z" fill="none" stroke="#142328" stroke-miterlimit="10" stroke-width="1"/>
    <path id="Path_1680" data-name="Path 1680" d="M485.4,57.2c-8.6,1.107-13.648-10.535-13.648-10.535s-1.059,12.428-10.534,13.648c9.365-1.206,13.532,9.634,13.532,9.634S476.687,58.321,485.4,57.2" fill="#ffd512"/>
    <path id="Path_1681" data-name="Path 1681" d="M485.4,57.2c-8.6,1.107-13.648-10.535-13.648-10.535s-1.059,12.428-10.534,13.648c9.365-1.206,13.532,9.634,13.532,9.634S476.687,58.321,485.4,57.2Z" fill="none" stroke="#142328" stroke-miterlimit="10" stroke-width="1"/>
    <path id="Path_1682" data-name="Path 1682" d="M636.757,63.014s1.06,5.927-3.205,7.68c4.216-1.733,7.514,2.8,7.514,2.8s-.55-5.662,3.371-7.274c-3.872,1.592-7.68-3.205-7.68-3.205" fill="#ffd512"/>
    <path id="Path_1683" data-name="Path 1683" d="M636.757,63.014s1.06,5.927-3.205,7.68c4.216-1.733,7.514,2.8,7.514,2.8s-.55-5.662,3.371-7.274C640.565,67.811,636.757,63.014,636.757,63.014Z" fill="none" stroke="#142328" stroke-miterlimit="10" stroke-width="1"/>
    <path id="Path_1684" data-name="Path 1684" d="M688.15,69.454s.467,9.37-6.471,11.237c6.858-1.846,11.06,5.811,11.06,5.811s.269-8.86,6.648-10.577c-6.3,1.695-11.237-6.471-11.237-6.471" fill="#ffd512"/>
    <path id="Path_1685" data-name="Path 1685" d="M688.15,69.454s.467,9.37-6.471,11.237c6.858-1.846,11.06,5.811,11.06,5.811s.269-8.86,6.648-10.577C693.088,77.62,688.15,69.454,688.15,69.454Z" fill="none" stroke="#142328" stroke-miterlimit="10" stroke-width="1"/>
    <path id="Path_1686" data-name="Path 1686" d="M764.256,78.89s-.151,4.707-3.7,5.357c3.507-.642,5.3,3.362,5.3,3.362s.5-4.423,3.76-5.02c-3.221.59-5.357-3.7-5.357-3.7" fill="#ffd512"/>
    <path id="Path_1687" data-name="Path 1687" d="M764.256,78.89s-.151,4.707-3.7,5.357c3.507-.642,5.3,3.362,5.3,3.362s.5-4.423,3.76-5.02C766.392,83.179,764.256,78.89,764.256,78.89Z" fill="none" stroke="#142328" stroke-miterlimit="10" stroke-width="1"/>
    <path id="Path_1688" data-name="Path 1688" d="M819.657,86s-.9,4.272-4.24,4.293c3.3-.02,4.291,3.922,4.291,3.922s1.168-3.956,4.243-3.975c-3.036.019-4.294-4.24-4.294-4.24" fill="#ffd512"/>
    <path id="Path_1689" data-name="Path 1689" d="M819.657,86s-.9,4.272-4.24,4.293c3.3-.02,4.291,3.922,4.291,3.922s1.168-3.956,4.243-3.975C820.915,90.262,819.657,86,819.657,86Z" fill="none" stroke="#142328" stroke-miterlimit="10" stroke-width="1"/>
    <path id="Path_1690" data-name="Path 1690" d="M876.657,77.839s-.371,4.35-3.687,4.776c3.278-.422,4.736,3.372,4.736,3.372s.679-4.069,3.727-4.461c-3.01.387-4.776-3.687-4.776-3.687" fill="#ffd512"/>
    <path id="Path_1691" data-name="Path 1691" d="M876.657,77.839s-.371,4.35-3.687,4.776c3.278-.422,4.736,3.372,4.736,3.372s.679-4.069,3.727-4.461C878.423,81.913,876.657,77.839,876.657,77.839Z" fill="none" stroke="#142328" stroke-miterlimit="10" stroke-width="1"/>
    <path id="Path_1692" data-name="Path 1692" d="M633.645,322.055s1.138-4.1,4.309-4.174c-3.132.071-4.5-4.3-4.5-4.3s-.852,4.424-4.3,4.5c3.41-.077,4.495,3.974,4.495,3.974" fill="#ffd512"/>
    <path id="Path_1693" data-name="Path 1693" d="M633.645,322.055s1.138-4.1,4.309-4.174c-3.132.071-4.5-4.3-4.5-4.3s-.852,4.424-4.3,4.5C632.56,318,633.645,322.055,633.645,322.055Z" fill="none" stroke="#142328" stroke-miterlimit="10" stroke-width="1"/>
    <path id="Path_1694" data-name="Path 1694" d="M683.386,339.733s-.788,4.3-4.131,4.4c3.3-.1,4.391,3.814,4.391,3.814s1.068-3.986,4.141-4.084c-3.035.1-4.4-4.131-4.4-4.131" fill="#ffd512"/>
    <path id="Path_1695" data-name="Path 1695" d="M683.386,339.733s-.788,4.3-4.131,4.4c3.3-.1,4.391,3.814,4.391,3.814s1.068-3.986,4.141-4.084C684.752,343.961,683.386,339.733,683.386,339.733Z" fill="none" stroke="#142328" stroke-miterlimit="10" stroke-width="1"/>
    <path id="Path_1696" data-name="Path 1696" d="M687.469,376.312s-.649,4.544-4.156,4.794c3.466-.247,4.77,3.823,4.77,3.823s.956-4.231,4.18-4.461c-3.184.227-4.794-4.156-4.794-4.156" fill="#ffd512"/>
    <path id="Path_1697" data-name="Path 1697" d="M687.469,376.312s-.649,4.544-4.156,4.794c3.466-.247,4.77,3.823,4.77,3.823s.956-4.231,4.18-4.461C689.079,380.7,687.469,376.312,687.469,376.312Z" fill="none" stroke="#142328" stroke-miterlimit="10" stroke-width="1"/>
    <path id="Path_1698" data-name="Path 1698" d="M438.876,306.406s.628,6.34-4.016,7.837c4.59-1.48,7.694,3.574,7.694,3.574s-.111-6.019,4.159-7.395c-4.217,1.359-7.837-4.016-7.837-4.016" fill="#ffd512"/>
    <path id="Path_1699" data-name="Path 1699" d="M438.876,306.406s.628,6.34-4.016,7.837c4.59-1.48,7.694,3.574,7.694,3.574s-.111-6.019,4.159-7.395C442.5,311.781,438.876,306.406,438.876,306.406Z" fill="none" stroke="#142328" stroke-miterlimit="10" stroke-width="1"/>
    <path id="Path_1700" data-name="Path 1700" d="M422.445,247.4s.6,6.383-4.078,7.867c4.626-1.467,7.726,3.634,7.726,3.634s-.084-6.058,4.219-7.423c-4.249,1.348-7.867-4.078-7.867-4.078" fill="#ffd512"/>
    <path id="Path_1701" data-name="Path 1701" d="M422.445,247.4s.6,6.383-4.078,7.867c4.626-1.467,7.726,3.634,7.726,3.634s-.084-6.058,4.219-7.423C426.063,252.823,422.445,247.4,422.445,247.4Z" fill="none" stroke="#142328" stroke-miterlimit="10" stroke-width="1"/>
    <path id="Path_1702" data-name="Path 1702" d="M400.778,212.954s-.552,6.07-5.185,6.64c4.58-.564,6.586,4.744,6.586,4.744s.979-5.675,5.239-6.2c-4.207.517-6.64-5.185-6.64-5.185" fill="#ffd512"/>
    <path id="Path_1703" data-name="Path 1703" d="M400.778,212.954s-.552,6.07-5.185,6.64c4.58-.564,6.586,4.744,6.586,4.744s.979-5.675,5.239-6.2C403.211,218.656,400.778,212.954,400.778,212.954Z" fill="none" stroke="#142328" stroke-miterlimit="10" stroke-width="1"/>
    <path id="Path_1704" data-name="Path 1704" d="M575.714,208.294s2.168-3.509,5.138-2.718c-2.933-.78-3.026-5.221-3.026-5.221s-1.99,3.886-5.219,3.025c3.192.85,3.107,4.914,3.107,4.914" fill="#ffd512"/>
    <path id="Path_1705" data-name="Path 1705" d="M575.714,208.294s2.168-3.509,5.138-2.718c-2.933-.78-3.026-5.221-3.026-5.221s-1.99,3.886-5.219,3.025C575.8,204.23,575.714,208.294,575.714,208.294Z" fill="none" stroke="#142328" stroke-miterlimit="10" stroke-width="1"/>
    <path id="Path_1706" data-name="Path 1706" d="M1047.842,158.938s.686-4.068,3.736-4.454c-3.012.382-4.77-3.7-4.77-3.7s-.379,4.349-3.7,4.769c3.279-.416,4.73,3.381,4.73,3.381" fill="#ffd512"/>
    <path id="Path_1707" data-name="Path 1707" d="M1047.842,158.938s.686-4.068,3.736-4.454c-3.012.382-4.77-3.7-4.77-3.7s-.379,4.349-3.7,4.769C1046.391,155.141,1047.842,158.938,1047.842,158.938Z" fill="none" stroke="#142328" stroke-miterlimit="10" stroke-width="1"/>
    <path id="Path_1708" data-name="Path 1708" d="M983.328,44.387s-.157,4.363-3.448,4.952c3.253-.583,4.9,3.135,4.9,3.135s.478-4.1,3.5-4.639c-2.988.535-4.952-3.448-4.952-3.448" fill="#ffd512"/>
    <path id="Path_1709" data-name="Path 1709" d="M983.328,44.387s-.157,4.363-3.448,4.952c3.253-.583,4.9,3.135,4.9,3.135s.478-4.1,3.5-4.639C985.292,48.37,983.328,44.387,983.328,44.387Z" fill="none" stroke="#142328" stroke-miterlimit="10" stroke-width="1"/>
    <path id="Path_1710" data-name="Path 1710" d="M1185.209,117.979s-.409,4.346-3.728,4.744c3.281-.393,4.707,3.413,4.707,3.413s.713-4.063,3.766-4.429c-3.015.362-4.745-3.728-4.745-3.728" fill="#ffd512"/>
    <path id="Path_1711" data-name="Path 1711" d="M1185.209,117.979s-.409,4.346-3.728,4.744c3.281-.393,4.707,3.413,4.707,3.413s.713-4.063,3.766-4.429C1186.939,122.069,1185.209,117.979,1185.209,117.979Z" fill="none" stroke="#142328" stroke-miterlimit="10" stroke-width="1"/>
    <path id="Path_1712" data-name="Path 1712" d="M1174.029,47.246s-.326,4.353-3.637,4.815c3.273-.456,4.771,3.322,4.771,3.322s.636-4.076,3.681-4.5c-3.007.419-4.815-3.637-4.815-3.637" fill="#ffd512"/>
    <path id="Path_1713" data-name="Path 1713" d="M1174.029,47.246s-.326,4.353-3.637,4.815c3.273-.456,4.771,3.322,4.771,3.322s.636-4.076,3.681-4.5C1175.837,51.3,1174.029,47.246,1174.029,47.246Z" fill="none" stroke="#142328" stroke-miterlimit="10" stroke-width="1"/>
    <path id="Path_1714" data-name="Path 1714" d="M1034.526,80.868s-1.636,4.047-4.93,3.479c3.256.562,3.532,4.617,3.532,4.617s1.847-3.689,4.877-3.166c-2.992-.516-3.479-4.93-3.479-4.93" fill="#ffd512"/>
    <path id="Path_1715" data-name="Path 1715" d="M1034.526,80.868s-1.636,4.047-4.93,3.479c3.256.562,3.532,4.617,3.532,4.617s1.847-3.689,4.877-3.166C1035.013,85.282,1034.526,80.868,1034.526,80.868Z" fill="none" stroke="#142328" stroke-miterlimit="10" stroke-width="1"/>
    <path id="Path_1716" data-name="Path 1716" d="M1135.9,21.46s.514-4.093,3.545-4.608c-2.993.509-4.921-3.491-4.921-3.491s-.2,4.361-3.492,4.921c3.258-.554,4.868,3.178,4.868,3.178" fill="#ffd512"/>
    <path id="Path_1717" data-name="Path 1717" d="M1135.9,21.46s.514-4.093,3.545-4.608c-2.993.509-4.921-3.491-4.921-3.491s-.2,4.361-3.492,4.921C1134.288,17.728,1135.9,21.46,1135.9,21.46Z" fill="none" stroke="#142328" stroke-miterlimit="10" stroke-width="1"/>
    <path id="Path_1718" data-name="Path 1718" d="M1148.617,174.883c-2.957-.684-3.195-5.118-3.195-5.118s-1.861,3.948-5.119,3.2c3.22.745,3.267,4.809,3.267,4.809s2.052-3.579,5.047-2.886" fill="#ffd512"/>
    <path id="Path_1719" data-name="Path 1719" d="M1148.617,174.883c-2.957-.684-3.195-5.118-3.195-5.118s-1.861,3.948-5.119,3.2c3.22.745,3.267,4.809,3.267,4.809S1145.622,174.19,1148.617,174.883Z" fill="none" stroke="#142328" stroke-miterlimit="10" stroke-width="1"/>
    <path id="Path_1720" data-name="Path 1720" d="M992.017,240.173s-1.007,4.626-4.633,4.622c3.584,0,4.622,4.288,4.622,4.288s1.3-4.281,4.633-4.277c-3.292,0-4.622-4.633-4.622-4.633" fill="#ffd512"/>
    <path id="Path_1721" data-name="Path 1721" d="M992.017,240.173s-1.007,4.626-4.633,4.622c3.584,0,4.622,4.288,4.622,4.288s1.3-4.281,4.633-4.277C993.347,244.8,992.017,240.173,992.017,240.173Z" fill="none" stroke="#142328" stroke-miterlimit="10" stroke-width="1"/>
    <path id="Path_1722" data-name="Path 1722" d="M1124.491,351.755s-.569,4.328-3.9,4.6c3.293-.272,4.577,3.585,4.577,3.585s.864-4.034,3.927-4.287c-3.025.25-4.6-3.9-4.6-3.9" fill="#ffd512"/>
    <path id="Path_1723" data-name="Path 1723" d="M1124.491,351.755s-.569,4.328-3.9,4.6c3.293-.272,4.577,3.585,4.577,3.585s.864-4.034,3.927-4.287C1126.069,355.906,1124.491,351.755,1124.491,351.755Z" fill="none" stroke="#142328" stroke-miterlimit="10" stroke-width="1"/>
    <path id="Path_1724" data-name="Path 1724" d="M963.459,456.408s-4.478,14.6-16.132,13.613c11.52.976,13.707,15.024,13.707,15.024s5.323-13.412,16.038-12.505c-10.581-.9-13.613-16.132-13.613-16.132" fill="#ffd512"/>
    <path id="Path_1725" data-name="Path 1725" d="M963.459,456.408s-4.478,14.6-16.132,13.613c11.52.976,13.707,15.024,13.707,15.024s5.323-13.412,16.038-12.505C966.491,471.644,963.459,456.408,963.459,456.408Z" fill="none" stroke="#142328" stroke-miterlimit="10" stroke-width="1"/>
    <path id="Path_1726" data-name="Path 1726" d="M1150.84,502.949s-.192,5.07-4.018,5.747c3.782-.669,5.683,3.655,5.683,3.655s.564-4.761,4.082-5.384c-3.473.615-5.747-4.018-5.747-4.018" fill="#ffd512"/>
    <path id="Path_1727" data-name="Path 1727" d="M1150.84,502.949s-.192,5.07-4.018,5.747c3.782-.669,5.683,3.655,5.683,3.655s.564-4.761,4.082-5.384C1153.114,507.582,1150.84,502.949,1150.84,502.949Z" fill="none" stroke="#142328" stroke-miterlimit="10" stroke-width="1"/>
    <path id="Path_1728" data-name="Path 1728" d="M1161.963,469.275s-.288,5.209-4.233,5.837c3.9-.621,5.777,3.858,5.777,3.858s.665-4.884,4.293-5.461c-3.583.57-5.837-4.234-5.837-4.234" fill="#ffd512"/>
    <path id="Path_1729" data-name="Path 1729" d="M1161.963,469.275s-.288,5.209-4.233,5.837c3.9-.621,5.777,3.858,5.777,3.858s.665-4.884,4.293-5.461C1164.217,474.079,1161.963,469.275,1161.963,469.275Z" fill="none" stroke="#142328" stroke-miterlimit="10" stroke-width="1"/>
    <path id="Path_1730" data-name="Path 1730" d="M1104.18,460.992s-.326,4.9-4.049,5.454c3.68-.544,5.4,3.695,5.4,3.695s.678-4.594,4.1-5.1c-3.381.5-5.454-4.049-5.454-4.049" fill="#ffd512"/>
    <path id="Path_1731" data-name="Path 1731" d="M1104.18,460.992s-.326,4.9-4.049,5.454c3.68-.544,5.4,3.695,5.4,3.695s.678-4.594,4.1-5.1C1106.253,465.541,1104.18,460.992,1104.18,460.992Z" fill="none" stroke="#142328" stroke-miterlimit="10" stroke-width="1"/>
    <path id="Path_1732" data-name="Path 1732" d="M1052.12,370.6s-1.5,8.122-7.818,8.319c6.25-.194,8.3,7.217,8.3,7.217s2.024-7.537,7.837-7.718c-5.741.178-8.319-7.818-8.319-7.818" fill="#ffd512"/>
    <path id="Path_1733" data-name="Path 1733" d="M1052.12,370.6s-1.5,8.122-7.818,8.319c6.25-.194,8.3,7.217,8.3,7.217s2.024-7.537,7.837-7.718C1054.7,378.6,1052.12,370.6,1052.12,370.6Z" fill="none" stroke="#142328" stroke-miterlimit="10" stroke-width="1"/>
    <path id="Path_1734" data-name="Path 1734" d="M949.046,257.222s-.125-5.623,3.86-6.923c-3.935,1.284-7.335-3.725-7.335-3.725s.608,5.92-3.726,7.334c4.284-1.4,7.2,3.314,7.2,3.314" fill="#ffd512"/>
    <path id="Path_1735" data-name="Path 1735" d="M949.046,257.222s-.125-5.623,3.86-6.923c-3.935,1.284-7.335-3.725-7.335-3.725s.608,5.92-3.726,7.334C946.129,252.511,949.046,257.222,949.046,257.222Z" fill="none" stroke="#142328" stroke-miterlimit="10" stroke-width="1"/>
    <path id="Path_1736" data-name="Path 1736" d="M912.819,218.615s-1.359-6.055,2.668-8.33c-3.977,2.245-8.745-2.432-8.745-2.432s1.946,6.272-2.433,8.745c4.329-2.444,8.51,2.017,8.51,2.017" fill="#ffd512"/>
    <path id="Path_1737" data-name="Path 1737" d="M912.819,218.615s-1.359-6.055,2.668-8.33c-3.977,2.245-8.745-2.432-8.745-2.432s1.946,6.272-2.433,8.745C908.638,214.154,912.819,218.615,912.819,218.615Z" fill="none" stroke="#142328" stroke-miterlimit="10" stroke-width="1"/>
    <path id="Path_1738" data-name="Path 1738" d="M742.631,239.44c-3.755.174-5.522-5.034-5.522-5.034s-.9,5.331-5.033,5.522c4.088-.189,5.5,4.641,5.5,4.641s1.25-4.953,5.052-5.129" fill="#ffd512"/>
    <path id="Path_1739" data-name="Path 1739" d="M742.631,239.44c-3.755.174-5.522-5.034-5.522-5.034s-.9,5.331-5.033,5.522c4.088-.189,5.5,4.641,5.5,4.641S738.829,239.616,742.631,239.44Z" fill="none" stroke="#142328" stroke-miterlimit="10" stroke-width="1"/>
    <path id="Path_1740" data-name="Path 1740" d="M554.723,433.1s-2.266,7.622-8.338,7.161c6,.456,7.2,7.761,7.2,7.761s2.712-7.008,8.295-6.584c-5.514-.419-7.161-8.338-7.161-8.338" fill="#ffd512"/>
    <path id="Path_1741" data-name="Path 1741" d="M554.723,433.1s-2.266,7.622-8.338,7.161c6,.456,7.2,7.761,7.2,7.761s2.712-7.008,8.295-6.584C556.37,441.023,554.723,433.1,554.723,433.1Z" fill="none" stroke="#142328" stroke-miterlimit="10" stroke-width="1"/>
    <path id="Path_1742" data-name="Path 1742" d="M631.789,527.795s-1.57,4.073-4.873,3.558c3.265.509,3.607,4.559,3.607,4.559s1.787-3.717,4.824-3.244c-3-.468-3.558-4.873-3.558-4.873" fill="#ffd512"/>
    <path id="Path_1743" data-name="Path 1743" d="M631.789,527.795s-1.57,4.073-4.873,3.558c3.265.509,3.607,4.559,3.607,4.559s1.787-3.717,4.824-3.244C632.348,532.2,631.789,527.795,631.789,527.795Z" fill="none" stroke="#142328" stroke-miterlimit="10" stroke-width="1"/>
    <path id="Path_1744" data-name="Path 1744" d="M865.094,634.4s-1.1,4.226-4.436,4.09c3.3.134,4.1,4.119,4.1,4.119s1.352-3.9,4.423-3.773c-3.033-.123-4.09-4.436-4.09-4.436" fill="#ffd512"/>
    <path id="Path_1745" data-name="Path 1745" d="M865.094,634.4s-1.1,4.226-4.436,4.09c3.3.134,4.1,4.119,4.1,4.119s1.352-3.9,4.423-3.773C866.151,638.71,865.094,634.4,865.094,634.4Z" fill="none" stroke="#142328" stroke-miterlimit="10" stroke-width="1"/>
    <path id="Path_1746" data-name="Path 1746" d="M1010.6,667.646s-.571,4.328-3.9,4.6c3.294-.271,4.576,3.586,4.576,3.586s.865-4.033,3.929-4.285c-3.025.248-4.6-3.9-4.6-3.9" fill="#ffd512"/>
    <path id="Path_1747" data-name="Path 1747" d="M1010.6,667.646s-.571,4.328-3.9,4.6c3.294-.271,4.576,3.586,4.576,3.586s.865-4.033,3.929-4.285C1012.177,671.8,1010.6,667.646,1010.6,667.646Z" fill="none" stroke="#142328" stroke-miterlimit="10" stroke-width="1"/>
    <path id="Path_1748" data-name="Path 1748" d="M1136.6,670.04s-.441,5.173-4.385,5.681c3.9-.5,5.633,4.01,5.633,4.01s.807-4.839,4.433-5.306c-3.581.461-5.681-4.385-5.681-4.385" fill="#ffd512"/>
    <path id="Path_1749" data-name="Path 1749" d="M1136.6,670.04s-.441,5.173-4.385,5.681c3.9-.5,5.633,4.01,5.633,4.01s.807-4.839,4.433-5.306C1138.7,674.886,1136.6,670.04,1136.6,670.04Z" fill="none" stroke="#142328" stroke-miterlimit="10" stroke-width="1"/>
    <path id="Path_1750" data-name="Path 1750" d="M1211.89,668.129s-.559,6.556-5.557,7.2c4.94-.636,7.138,5.083,7.138,5.083s1.023-6.133,5.618-6.725c-4.538.584-7.2-5.557-7.2-5.557" fill="#ffd512"/>
    <path id="Path_1751" data-name="Path 1751" d="M1211.89,668.129s-.559,6.556-5.557,7.2c4.94-.636,7.138,5.083,7.138,5.083s1.023-6.133,5.618-6.725C1214.551,674.27,1211.89,668.129,1211.89,668.129Z" fill="none" stroke="#142328" stroke-miterlimit="10" stroke-width="1"/>
    <path id="Path_1752" data-name="Path 1752" d="M468.752,641.444s-.343,4.352-3.656,4.8c3.275-.443,4.758,3.341,4.758,3.341s.652-4.073,3.7-4.485c-3.008.407-4.8-3.656-4.8-3.656" fill="#ffd512"/>
    <path id="Path_1753" data-name="Path 1753" d="M468.752,641.444s-.343,4.352-3.656,4.8c3.275-.443,4.758,3.341,4.758,3.341s.652-4.073,3.7-4.485C470.544,645.507,468.752,641.444,468.752,641.444Z" fill="none" stroke="#142328" stroke-miterlimit="10" stroke-width="1"/>
    <path id="Path_1754" data-name="Path 1754" d="M445.4,557.254s-.922,4.267-4.266,4.267c3.3,0,4.267,3.948,4.267,3.948s1.193-3.949,4.266-3.949c-3.035,0-4.267-4.266-4.267-4.266" fill="#ffd512"/>
    <path id="Path_1755" data-name="Path 1755" d="M445.4,557.254s-.922,4.267-4.266,4.267c3.3,0,4.267,3.948,4.267,3.948s1.193-3.949,4.266-3.949C446.628,561.52,445.4,557.254,445.4,557.254Z" fill="none" stroke="#142328" stroke-miterlimit="10" stroke-width="1"/>
    <path id="Path_1756" data-name="Path 1756" d="M262.055,443.871s-.676,4.313-4.013,4.506c3.3-.191,4.487,3.7,4.487,3.7s.963-4.011,4.032-4.189c-3.031.175-4.506-4.013-4.506-4.013" fill="#ffd512"/>
    <path id="Path_1757" data-name="Path 1757" d="M262.055,443.871s-.676,4.313-4.013,4.506c3.3-.191,4.487,3.7,4.487,3.7s.963-4.011,4.032-4.189C263.53,448.059,262.055,443.871,262.055,443.871Z" fill="none" stroke="#142328" stroke-miterlimit="10" stroke-width="1"/>
    <path id="Path_1758" data-name="Path 1758" d="M335.558,187.8s-.142-4.629,3.129-5.728c-3.23,1.085-6.066-3.016-6.066-3.016s.543,4.871-3.016,6.066c3.518-1.181,5.953,2.678,5.953,2.678" fill="#ffd512"/>
    <path id="Path_1759" data-name="Path 1759" d="M335.558,187.8s-.142-4.629,3.129-5.728c-3.23,1.085-6.066-3.016-6.066-3.016s.543,4.871-3.016,6.066C333.123,183.937,335.558,187.8,335.558,187.8Z" fill="none" stroke="#142328" stroke-miterlimit="10" stroke-width="1"/>
    <path id="Path_1760" data-name="Path 1760" d="M551.446,172.63s-.863-4.034,1.828-5.519c-2.658,1.467-5.8-1.674-5.8-1.674s1.253,4.182-1.674,5.8c2.893-1.6,5.643,1.4,5.643,1.4" fill="#ffd512"/>
    <path id="Path_1761" data-name="Path 1761" d="M551.446,172.63s-.863-4.034,1.828-5.519c-2.658,1.467-5.8-1.674-5.8-1.674s1.253,4.182-1.674,5.8C548.7,169.637,551.446,172.63,551.446,172.63Z" fill="none" stroke="#142328" stroke-miterlimit="10" stroke-width="1"/>
    <path id="Path_1762" data-name="Path 1762" d="M561.005,38.417s-.293,4.356-3.6,4.841c3.27-.48,4.795,3.287,4.795,3.287s.606-4.08,3.647-4.527c-3,.441-4.841-3.6-4.841-3.6" fill="#ffd512"/>
    <path id="Path_1763" data-name="Path 1763" d="M561.005,38.417s-.293,4.356-3.6,4.841c3.27-.48,4.795,3.287,4.795,3.287s.606-4.08,3.647-4.527C562.843,42.459,561.005,38.417,561.005,38.417Z" fill="none" stroke="#142328" stroke-miterlimit="10" stroke-width="1"/>
    <path id="Path_1764" data-name="Path 1764" d="M22.971,347.651s-.493,4.338-3.82,4.671c3.288-.33,4.639,3.5,4.639,3.5s.793-4.048,3.852-4.355c-3.021.3-4.671-3.82-4.671-3.82" fill="#ffd512"/>
    <path id="Path_1765" data-name="Path 1765" d="M22.971,347.651s-.493,4.338-3.82,4.671c3.288-.33,4.639,3.5,4.639,3.5s.793-4.048,3.852-4.355C24.621,351.774,22.971,347.651,22.971,347.651Z" fill="none" stroke="#142328" stroke-miterlimit="10" stroke-width="1"/>
    <path id="Path_1766" data-name="Path 1766" d="M3.786,667.548s-.407,4.346-3.727,4.745c3.281-.394,4.708,3.412,4.708,3.412s.712-4.063,3.764-4.43c-3.013.362-4.745-3.727-4.745-3.727" fill="#ffd512"/>
    <path id="Path_1767" data-name="Path 1767" d="M3.786,667.548s-.407,4.346-3.727,4.745c3.281-.394,4.708,3.412,4.708,3.412s.712-4.063,3.764-4.43C5.518,671.637,3.786,667.548,3.786,667.548Z" fill="none" stroke="#142328" stroke-miterlimit="10" stroke-width="1"/>
    <path id="Path_1768" data-name="Path 1768" d="M132.784,405.452c3.065-1.236,5.434,2.067,5.434,2.067s-.371-4.109,2.48-5.258c-2.815,1.135-5.553-2.362-5.553-2.362s.74,4.3-2.361,5.553" fill="#ffd512"/>
    <path id="Path_1769" data-name="Path 1769" d="M132.784,405.452c3.065-1.236,5.434,2.067,5.434,2.067s-.371-4.109,2.48-5.258c-2.815,1.135-5.553-2.362-5.553-2.362S135.885,404.2,132.784,405.452Z" fill="none" stroke="#142328" stroke-miterlimit="10" stroke-width="1"/>
    <path id="Path_1770" data-name="Path 1770" d="M127.561,506.605s-.371,4.35-3.687,4.777c3.278-.422,4.736,3.371,4.736,3.371s.679-4.069,3.727-4.461c-3.01.388-4.776-3.687-4.776-3.687" fill="#ffd512"/>
    <path id="Path_1771" data-name="Path 1771" d="M127.561,506.605s-.371,4.35-3.687,4.777c3.278-.422,4.736,3.371,4.736,3.371s.679-4.069,3.727-4.461C129.327,510.68,127.561,506.605,127.561,506.605Z" fill="none" stroke="#142328" stroke-miterlimit="10" stroke-width="1"/>
    <path id="Path_1772" data-name="Path 1772" d="M231.487,373s.739,4.3-2.361,5.553c3.065-1.236,5.433,2.066,5.433,2.066s-.37-4.108,2.481-5.258c-2.816,1.136-5.553-2.361-5.553-2.361" fill="#ffd512"/>
    <path id="Path_1773" data-name="Path 1773" d="M231.487,373s.739,4.3-2.361,5.553c3.065-1.236,5.433,2.066,5.433,2.066s-.37-4.108,2.481-5.258C234.224,376.5,231.487,373,231.487,373Z" fill="none" stroke="#142328" stroke-miterlimit="10" stroke-width="1"/>
    <path id="Path_1774" data-name="Path 1774" d="M421.85,405.542s.679-4.069,3.728-4.461c-3.011.387-4.777-3.687-4.777-3.687s-.371,4.349-3.687,4.776c3.278-.422,4.736,3.372,4.736,3.372" fill="#ffd512"/>
    <path id="Path_1775" data-name="Path 1775" d="M421.85,405.542s.679-4.069,3.728-4.461c-3.011.387-4.777-3.687-4.777-3.687s-.371,4.349-3.687,4.776C420.392,401.748,421.85,405.542,421.85,405.542Z" fill="none" stroke="#142328" stroke-miterlimit="10" stroke-width="1"/>
    <path id="Path_1776" data-name="Path 1776" d="M201.465,662.509s-.371,4.35-3.687,4.777c3.278-.422,4.736,3.371,4.736,3.371s.679-4.069,3.727-4.461c-3.01.388-4.776-3.687-4.776-3.687" fill="#ffd512"/>
    <path id="Path_1777" data-name="Path 1777" d="M201.465,662.509s-.371,4.35-3.687,4.777c3.278-.422,4.736,3.371,4.736,3.371s.679-4.069,3.727-4.461C203.231,666.584,201.465,662.509,201.465,662.509Z" fill="none" stroke="#142328" stroke-miterlimit="10" stroke-width="1"/>
    <path id="Path_1778" data-name="Path 1778" d="M758.663,669.18s-.607,4.323-3.941,4.569c3.3-.243,4.545,3.624,4.545,3.624s.9-4.026,3.965-4.252c-3.028.224-4.569-3.941-4.569-3.941" fill="#ffd512"/>
    <path id="Path_1779" data-name="Path 1779" d="M758.663,669.18s-.607,4.323-3.941,4.569c3.3-.243,4.545,3.624,4.545,3.624s.9-4.026,3.965-4.252C760.2,673.345,758.663,669.18,758.663,669.18Z" fill="none" stroke="#142328" stroke-miterlimit="10" stroke-width="1"/>
    <path id="Path_1780" data-name="Path 1780" d="M782.837,357.146s-.117,4.364-3.4,4.983c3.248-.612,4.924,3.09,4.924,3.09s.441-4.1,3.462-4.67c-2.983.562-4.983-3.4-4.983-3.4" fill="#ffd512"/>
    <path id="Path_1781" data-name="Path 1781" d="M782.837,357.146s-.117,4.364-3.4,4.983c3.248-.612,4.924,3.09,4.924,3.09s.441-4.1,3.462-4.67C784.837,361.111,782.837,357.146,782.837,357.146Z" fill="none" stroke="#142328" stroke-miterlimit="10" stroke-width="1"/>
    <path id="Path_1782" data-name="Path 1782" d="M675.263,259.281s1.249-4.953,5.052-5.129c-3.755.174-5.522-5.034-5.522-5.034s-.9,5.331-5.034,5.523c4.088-.19,5.5,4.64,5.5,4.64" fill="#ffd512"/>
    <path id="Path_1783" data-name="Path 1783" d="M675.263,259.281s1.249-4.953,5.052-5.129c-3.755.174-5.522-5.034-5.522-5.034s-.9,5.331-5.034,5.523C673.847,254.451,675.263,259.281,675.263,259.281Z" fill="none" stroke="#142328" stroke-miterlimit="10" stroke-width="1"/>
    <path id="Path_1784" data-name="Path 1784" d="M638.505,388.378s-.761,4.469-4.23,4.623c3.429-.152,4.609,3.9,4.609,3.9s1.055-4.152,4.244-4.293c-3.149.139-4.623-4.23-4.623-4.23" fill="#ffd512"/>
    <path id="Path_1785" data-name="Path 1785" d="M638.505,388.378s-.761,4.469-4.23,4.623c3.429-.152,4.609,3.9,4.609,3.9s1.055-4.152,4.244-4.293C639.979,392.747,638.505,388.378,638.505,388.378Z" fill="none" stroke="#142328" stroke-miterlimit="10" stroke-width="1"/>
    <path id="Path_1786" data-name="Path 1786" d="M838.825,165.328s-.371,4.35-3.687,4.776c3.278-.422,4.736,3.372,4.736,3.372s.679-4.069,3.728-4.461c-3.011.388-4.777-3.687-4.777-3.687" fill="#ffd512"/>
    <path id="Path_1787" data-name="Path 1787" d="M838.825,165.328s-.371,4.35-3.687,4.776c3.278-.422,4.736,3.372,4.736,3.372s.679-4.069,3.728-4.461C840.591,169.4,838.825,165.328,838.825,165.328Z" fill="none" stroke="#142328" stroke-miterlimit="10" stroke-width="1"/>
    <path id="Path_1788" data-name="Path 1788" d="M972.932,141.13s.679-4.069,3.727-4.461c-3.011.387-4.776-3.687-4.776-3.687s-.371,4.349-3.688,4.776c3.279-.422,4.737,3.372,4.737,3.372" fill="#ffd512"/>
    <path id="Path_1789" data-name="Path 1789" d="M972.932,141.13s.679-4.069,3.727-4.461c-3.011.387-4.776-3.687-4.776-3.687s-.371,4.349-3.688,4.776C971.474,137.336,972.932,141.13,972.932,141.13Z" fill="none" stroke="#142328" stroke-miterlimit="10" stroke-width="1"/>
    <path id="Path_1790" data-name="Path 1790" d="M834.716,22.568s.679-4.069,3.728-4.461c-3.011.387-4.777-3.687-4.777-3.687s-.371,4.349-3.687,4.776c3.278-.422,4.736,3.372,4.736,3.372" fill="#ffd512"/>
    <path id="Path_1791" data-name="Path 1791" d="M834.716,22.568s.679-4.069,3.728-4.461c-3.011.387-4.777-3.687-4.777-3.687s-.371,4.349-3.687,4.776C833.258,18.774,834.716,22.568,834.716,22.568Z" fill="none" stroke="#142328" stroke-miterlimit="10" stroke-width="1"/>
    <path id="Path_1792" data-name="Path 1792" d="M716.2,12.742s.679-4.069,3.727-4.461c-3.01.387-4.776-3.687-4.776-3.687s-.371,4.349-3.687,4.776c3.278-.422,4.736,3.372,4.736,3.372" fill="#ffd512"/>
    <path id="Path_1793" data-name="Path 1793" d="M716.2,12.742s.679-4.069,3.727-4.461c-3.01.387-4.776-3.687-4.776-3.687s-.371,4.349-3.687,4.776C714.74,8.948,716.2,12.742,716.2,12.742Z" fill="none" stroke="#142328" stroke-miterlimit="10" stroke-width="1"/>
    <path id="Path_1794" data-name="Path 1794" d="M482.309,145.462s-.371,4.35-3.687,4.777c3.278-.422,4.736,3.371,4.736,3.371s.679-4.068,3.728-4.461c-3.011.388-4.777-3.687-4.777-3.687" fill="#ffd512"/>
    <path id="Path_1795" data-name="Path 1795" d="M482.309,145.462s-.371,4.35-3.687,4.777c3.278-.422,4.736,3.371,4.736,3.371s.679-4.068,3.728-4.461C484.075,149.537,482.309,145.462,482.309,145.462Z" fill="none" stroke="#142328" stroke-miterlimit="10" stroke-width="1"/>
    <path id="Path_1796" data-name="Path 1796" d="M347.646,98.5s-.371,4.35-3.687,4.776c3.278-.422,4.736,3.372,4.736,3.372s.679-4.069,3.728-4.461c-3.011.387-4.777-3.687-4.777-3.687" fill="#ffd512"/>
    <path id="Path_1797" data-name="Path 1797" d="M347.646,98.5s-.371,4.35-3.687,4.776c3.278-.422,4.736,3.372,4.736,3.372s.679-4.069,3.728-4.461C349.412,102.577,347.646,98.5,347.646,98.5Z" fill="none" stroke="#142328" stroke-miterlimit="10" stroke-width="1"/>
    <path id="Path_1798" data-name="Path 1798" d="M366.3,2.018s-.371,4.35-3.687,4.776c3.278-.421,4.736,3.372,4.736,3.372s.679-4.069,3.728-4.461c-3.011.388-4.777-3.687-4.777-3.687" fill="#ffd512"/>
    <path id="Path_1799" data-name="Path 1799" d="M366.3,2.018s-.371,4.35-3.687,4.776c3.278-.421,4.736,3.372,4.736,3.372s.679-4.069,3.728-4.461C368.061,6.093,366.3,2.018,366.3,2.018Z" fill="none" stroke="#142328" stroke-miterlimit="10" stroke-width="1"/>
    <path id="Path_1800" data-name="Path 1800" d="M208.106,11.392s-1.275-3.923,1.249-5.678c-2.492,1.733-5.939-1.068-5.939-1.068s1.678,4.031-1.067,5.939c2.713-1.886,5.757.807,5.757.807" fill="#ffd512"/>
    <path id="Path_1801" data-name="Path 1801" d="M208.106,11.392s-1.275-3.923,1.249-5.678c-2.492,1.733-5.939-1.068-5.939-1.068s1.678,4.031-1.067,5.939C205.062,8.7,208.106,11.392,208.106,11.392Z" fill="none" stroke="#142328" stroke-miterlimit="10" stroke-width="1"/>
    <path id="Path_1802" data-name="Path 1802" d="M238.2,155.474s-.371,4.35-3.687,4.776c3.278-.422,4.736,3.372,4.736,3.372s.679-4.069,3.728-4.461c-3.011.387-4.777-3.687-4.777-3.687" fill="#ffd512"/>
    <path id="Path_1803" data-name="Path 1803" d="M238.2,155.474s-.371,4.35-3.687,4.776c3.278-.422,4.736,3.372,4.736,3.372s.679-4.069,3.728-4.461C239.968,159.548,238.2,155.474,238.2,155.474Z" fill="none" stroke="#142328" stroke-miterlimit="10" stroke-width="1"/>
    <path id="Path_1804" data-name="Path 1804" d="M328.827,268.084c-3.011.388-4.776-3.687-4.776-3.687s-.371,4.35-3.687,4.777c3.277-.422,4.735,3.371,4.735,3.371s.679-4.068,3.728-4.461" fill="#ffd512"/>
    <path id="Path_1805" data-name="Path 1805" d="M328.827,268.084c-3.011.388-4.776-3.687-4.776-3.687s-.371,4.35-3.687,4.777c3.277-.422,4.735,3.371,4.735,3.371S325.778,268.477,328.827,268.084Z" fill="none" stroke="#142328" stroke-miterlimit="10" stroke-width="1"/>
    <path id="Path_1806" data-name="Path 1806" d="M741.18,308.005s-.77,4.3-4.113,4.419c3.3-.119,4.408,3.795,4.408,3.795s1.05-3.991,4.124-4.1c-3.035.109-4.419-4.113-4.419-4.113" fill="#ffd512"/>
    <path id="Path_1807" data-name="Path 1807" d="M741.18,308.005s-.77,4.3-4.113,4.419c3.3-.119,4.408,3.795,4.408,3.795s1.05-3.991,4.124-4.1C742.564,312.227,741.18,308.005,741.18,308.005Z" fill="none" stroke="#142328" stroke-miterlimit="10" stroke-width="1"/>
    <path id="Path_1808" data-name="Path 1808" d="M914.529,385.856s.086,4.365-3.169,5.135c3.216-.762,5.062,2.859,5.062,2.859s.251-4.117,3.242-4.825c-2.953.7-5.135-3.169-5.135-3.169" fill="#ffd512"/>
    <path id="Path_1809" data-name="Path 1809" d="M914.529,385.856s.086,4.365-3.169,5.135c3.216-.762,5.062,2.859,5.062,2.859s.251-4.117,3.242-4.825C916.711,389.724,914.529,385.856,914.529,385.856Z" fill="none" stroke="#142328" stroke-miterlimit="10" stroke-width="1"/>
    <path id="Path_1810" data-name="Path 1810" d="M1163.089,335.644s.864-4.034,3.927-4.286c-3.025.249-4.6-3.9-4.6-3.9s-.569,4.328-3.9,4.6c3.3-.272,4.577,3.585,4.577,3.585" fill="#ffd512"/>
    <path id="Path_1811" data-name="Path 1811" d="M1163.089,335.644s.864-4.034,3.927-4.286c-3.025.249-4.6-3.9-4.6-3.9s-.569,4.328-3.9,4.6C1161.807,331.787,1163.089,335.644,1163.089,335.644Z" fill="none" stroke="#142328" stroke-miterlimit="10" stroke-width="1"/>
    <path id="Path_1812" data-name="Path 1812" d="M1127.483,230.152s-2.341,3.685-5.478,2.529c3.1,1.142,2.638,5.18,2.638,5.18s2.484-3.293,5.369-2.231c-2.848-1.049-2.529-5.478-2.529-5.478" fill="#ffd512"/>
    <path id="Path_1813" data-name="Path 1813" d="M1127.483,230.152s-2.341,3.685-5.478,2.529c3.1,1.142,2.638,5.18,2.638,5.18s2.484-3.293,5.369-2.231C1127.164,234.581,1127.483,230.152,1127.483,230.152Z" fill="none" stroke="#142328" stroke-miterlimit="10" stroke-width="1"/>
    <path id="Path_1814" data-name="Path 1814" d="M184.111,561.933s-.371,4.35-3.687,4.777c3.278-.422,4.736,3.371,4.736,3.371s.679-4.069,3.728-4.461c-3.011.388-4.777-3.687-4.777-3.687" fill="#ffd512"/>
    <path id="Path_1815" data-name="Path 1815" d="M184.111,561.933s-.371,4.35-3.687,4.777c3.278-.422,4.736,3.371,4.736,3.371s.679-4.069,3.728-4.461C185.877,566.008,184.111,561.933,184.111,561.933Z" fill="none" stroke="#142328" stroke-miterlimit="10" stroke-width="1"/>
    <path id="Path_1816" data-name="Path 1816" d="M944.4,79.695s-1.458-3.794-4.736-3.372c3.316-.427,3.687-4.776,3.687-4.776s1.766,4.074,4.776,3.687c-3.048.392-3.727,4.461-3.727,4.461" fill="#ffd512"/>
    <path id="Path_1817" data-name="Path 1817" d="M944.4,79.695s-1.458-3.794-4.736-3.372c3.316-.427,3.687-4.776,3.687-4.776s1.766,4.074,4.776,3.687C945.079,75.626,944.4,79.695,944.4,79.695Z" fill="none" stroke="#142328" stroke-miterlimit="10" stroke-width="1"/>
  </g>
</svg>
