<?xml version="1.0" encoding="UTF-8"?><svg id="a" xmlns="http://www.w3.org/2000/svg" viewBox="0 0 994.16 128.92"><defs><style>.b{fill:#fbc748;fill-rule:evenodd;stroke:#000;stroke-miterlimit:10;stroke-width:2px;}</style></defs><path class="b" d="M29.24,112.87c-7.33-1.44-11.33-6.78-12.02-16-.69,9.22-4.69,14.55-12.02,16,7.33,1.43,11.33,6.76,12.02,15.98,.69-9.22,4.69-14.55,12.02-15.98h0Z"/><path class="b" d="M78.37,23.06c-9.24-1.82-14.28-8.55-15.15-20.16-.87,11.61-5.91,18.34-15.14,20.16,9.24,1.8,14.28,8.53,15.14,20.14,.87-11.61,5.91-18.34,15.15-20.14h0Z"/><path class="b" d="M164.75,31.17c-5.12-1.01-7.91-4.74-8.39-11.17-.48,6.43-3.27,10.16-8.39,11.17,5.12,1,7.91,4.72,8.39,11.16,.48-6.44,3.27-10.16,8.39-11.16h0Z"/><path class="b" d="M899.99,16.07c-7.33-1.44-11.33-6.78-12.02-16-.69,9.21-4.69,14.55-12.02,16,7.33,1.43,11.33,6.76,12.02,15.98,.69-9.21,4.69-14.55,12.02-15.98h0Z"/><path class="b" d="M988.95,79.62c-7.33-1.44-11.33-6.78-12.02-16-.69,9.21-4.69,14.55-12.02,16,7.33,1.43,11.33,6.76,12.02,15.98,.69-9.21,4.69-14.55,12.02-15.98h0Z"/><path class="b" d="M592.88,20.01c-5.12-1.01-7.91-4.74-8.39-11.17-.48,6.44-3.27,10.16-8.39,11.17,5.12,1,7.91,4.72,8.39,11.16,.48-6.44,3.27-10.16,8.39-11.16h0Z"/><path class="b" d="M394.95,19.41c-5.12-1.01-7.91-4.74-8.39-11.17-.48,6.43-3.27,10.16-8.39,11.17,5.12,1,7.91,4.72,8.39,11.16,.48-6.43,3.27-10.16,8.39-11.16h0Z"/></svg>