<svg id="Group_870" data-name="Group 870" xmlns="http://www.w3.org/2000/svg" xmlns:xlink="http://www.w3.org/1999/xlink" width="972.152" height="91.419" viewBox="0 0 972.152 91.419">
  <defs>
    <clipPath id="clip-path">
      <rect id="Rectangle_312" data-name="Rectangle 312" width="972.152" height="91.419" transform="translate(0 0)" fill="none"/>
    </clipPath>
  </defs>
  <g id="Group_869" data-name="Group 869" clip-path="url(#clip-path)">
    <path id="Path_1283" data-name="Path 1283" d="M933.3,75.367q-11-2.164-12.018-16-1.032,13.823-12.017,16,11,2.138,12.017,15.978,1.038-13.824,12.018-15.978" fill="#fbc748" fill-rule="evenodd"/>
    <path id="Path_1284" data-name="Path 1284" d="M933.3,75.367q-11-2.164-12.018-16-1.032,13.823-12.017,16,11,2.138,12.017,15.978Q922.319,77.521,933.3,75.367Z" fill="none" stroke="#000" stroke-miterlimit="10" stroke-width="2"/>
    <path id="Path_1285" data-name="Path 1285" d="M242.583,32.059q-11-2.166-12.018-16-1.032,13.821-12.016,16,10.994,2.141,12.016,15.978,1.033-13.823,12.018-15.978" fill="#fbc748" fill-rule="evenodd"/>
    <path id="Path_1286" data-name="Path 1286" d="M242.583,32.059q-11-2.166-12.018-16-1.032,13.821-12.016,16,10.994,2.141,12.016,15.978Q231.6,34.214,242.583,32.059Z" fill="none" stroke="#000" stroke-miterlimit="10" stroke-width="2"/>
    <path id="Path_1287" data-name="Path 1287" d="M29.238,16.071Q18.243,13.905,17.22.075q-1.032,13.82-12.015,16Q16.2,18.21,17.22,32.049q1.035-13.823,12.018-15.978" fill="#fbc748" fill-rule="evenodd"/>
    <path id="Path_1288" data-name="Path 1288" d="M29.238,16.071Q18.243,13.905,17.22.075q-1.032,13.82-12.015,16Q16.2,18.21,17.22,32.049,18.255,18.226,29.238,16.071Z" fill="none" stroke="#000" stroke-miterlimit="10" stroke-width="2"/>
    <path id="Path_1289" data-name="Path 1289" d="M335.437,67.522q-11-2.167-12.019-16-1.032,13.821-12.016,16Q322.4,69.662,323.418,83.5q1.037-13.818,12.019-15.978" fill="#fbc748" fill-rule="evenodd"/>
    <path id="Path_1290" data-name="Path 1290" d="M335.437,67.522q-11-2.167-12.019-16-1.032,13.821-12.016,16Q322.4,69.662,323.418,83.5,324.455,69.682,335.437,67.522Z" fill="none" stroke="#000" stroke-miterlimit="10" stroke-width="2"/>
    <path id="Path_1291" data-name="Path 1291" d="M966.944,36.925q-13.86-2.729-15.149-20.163-1.3,17.423-15.146,20.163,13.86,2.694,15.146,20.141,1.307-17.423,15.149-20.141" fill="#fbc748" fill-rule="evenodd"/>
    <path id="Path_1292" data-name="Path 1292" d="M966.944,36.925q-13.86-2.729-15.149-20.163-1.3,17.423-15.146,20.163,13.86,2.694,15.146,20.141Q953.1,39.643,966.944,36.925Z" fill="none" stroke="#000" stroke-miterlimit="10" stroke-width="2"/>
    <path id="Path_1293" data-name="Path 1293" d="M799.487,67.519Q791.81,66,791.1,56.347,790.371,66,782.7,67.519q7.681,1.494,8.393,11.158.722-9.651,8.391-11.158" fill="#fbc748" fill-rule="evenodd"/>
    <path id="Path_1294" data-name="Path 1294" d="M799.487,67.519Q791.81,66,791.1,56.347,790.371,66,782.7,67.519q7.681,1.494,8.393,11.158Q791.818,69.026,799.487,67.519Z" fill="none" stroke="#000" stroke-miterlimit="10" stroke-width="2"/>
  </g>
</svg>
