<svg id="Group_208" data-name="Group 208" xmlns="http://www.w3.org/2000/svg" xmlns:xlink="http://www.w3.org/1999/xlink" width="259.33" height="246.849" viewBox="0 0 259.33 246.849">
  <defs>
    <clipPath id="clip-path">
      <rect id="Rectangle_64" data-name="Rectangle 64" width="259.33" height="246.849" fill="none"/>
    </clipPath>
  </defs>
  <g id="Group_207" data-name="Group 207" clip-path="url(#clip-path)">
    <path id="Path_707" data-name="Path 707" d="M241.766,197.6c-.853.911-1.8,1.888-2.877,2.966a158.066,158.066,0,0,1-196.756,21.48l-.005,0-.368-.238-1.193-.773-.474-.311-.97-.649-.589-.4-1.026-.7-.528-.367-.135-.092-.743-.521-.139-.1-.563-.4-.987-.711-.521-.381-.729-.535-.128-.1-1.1-.822-.359-.27-1.091-.84-.345-.264L28.9,212.59l-.087-.066a158.057,158.057,0,0,1-13.392-11.956l-.507-.517A158.779,158.779,0,0,1,0,182.648a32.845,32.845,0,0,1,3.165-8.029,3.56,3.56,0,0,1,.382-.672,33.011,33.011,0,0,1,57.839,1.582l.369-.417a23.784,23.784,0,0,1,35.412-5.289c1.2-.97,7.048-5.885,14.816-15.591,8.736-10.919,9.222-14.8,9.222-14.8h11.908a81.494,81.494,0,0,0,10.054,18.2,33.822,33.822,0,0,0,2.489,2.9,23.549,23.549,0,0,1,33.335,12.209,20.652,20.652,0,0,1,1.825,9.044,21.39,21.39,0,0,1,19.139-.6,8.385,8.385,0,0,1,2.178.948c1.238.778,2.338,1.547,3.315,2.285a32.035,32.035,0,0,1,53.882-8.974A158.834,158.834,0,0,1,241.766,197.6" fill="#f18c0c" fill-rule="evenodd"/>
    <path id="Path_708" data-name="Path 708" d="M103.459,105.1,87.1,113.649l.374-21.183,15.794-15.611,1.859-22.114L118.98,59.2l9.751-2.6,6.506.928,16.726-.557.742,20.811,15.421,18.771v16.537l-16.535-8.36Z" fill="#f18c0c" fill-rule="evenodd"/>
    <path id="Path_709" data-name="Path 709" d="M96.955,108.5l-9.85,5.147.373-21.183,8.637-8.536h.84Z" fill="#ffd067" fill-rule="evenodd"/>
    <path id="Path_710" data-name="Path 710" d="M153.784,79.1l8.193,9.976v20.91l-10.386-5.25-.667,0V79.1Z" fill="#f18c0c" fill-rule="evenodd"/>
    <path id="Path_711" data-name="Path 711" d="M145.253,57.2l.867-.029,4.8,3.092v44.478l-5.29.039-.288-.143Z" fill="#ffc900" fill-rule="evenodd"/>
    <path id="Path_712" data-name="Path 712" d="M119.823,58.977l5.578-1.489v43.964l-5.472,3.523-.2,0Z" fill="#ffd067" fill-rule="evenodd"/>
    <path id="Path_713" data-name="Path 713" d="M103.521,73.916,105,56.355l2.015-1.007,2.115.68v45.424l-5.669,3.651Z" fill="#ffd067" fill-rule="evenodd"/>
    <path id="Path_714" data-name="Path 714" d="M122.532,101.452h9.254V63.346c-.009-.106-.014-.212-.014-.32a4.6,4.6,0,0,0-1.207-3.125l-.146-.135a4.609,4.609,0,0,0-7.867,3.258,3.414,3.414,0,0,1-.02.4Zm-16.34-49.233a11.753,11.753,0,0,1,12.789,2.38,11.742,11.742,0,0,1,16.362,0,11.753,11.753,0,0,1,12.779-2.384V48.683L127.156,10.891,106.192,48.683Zm0,49.233h9.23V63.346c-.007-.106-.012-.212-.012-.32A4.608,4.608,0,0,0,114.2,59.9l-.145-.135a4.609,4.609,0,0,0-7.867,3.2v38.488ZM99.054,84.177,89.838,96.535V108.69l9.216-5.655ZM148.122,109.1h-41.93v11.691l3.6,4.08h34.73l3.6-4.08Zm7.132-36.843L170.9,93.225a3.558,3.558,0,0,1,.707,2.132h.005v19.7a3.569,3.569,0,0,1-5.654,2.9l-10.705-6.566v10.731a3.56,3.56,0,0,1-1.1,2.584l-5.374,6.091a3.553,3.553,0,0,1-2.661,1.2V132H108.2a3.557,3.557,0,0,1-2.871-1.449l-5.366-6.08a3.55,3.55,0,0,1-.893-2.356h-.015V111.386l-10.7,6.566a3.569,3.569,0,0,1-5.653-2.9v-19.7h0a3.548,3.548,0,0,1,.7-2.132L99.054,72.253V47.784a3.557,3.557,0,0,1,.6-1.98L124.048,1.828a3.561,3.561,0,0,1,6.222.007L154.8,46.056a3.542,3.542,0,0,1,.448,1.728h.007V62.506c.01.173.014.345.014.52a2.811,2.811,0,0,1-.014.292Zm0,30.782,9.221,5.655V96.535l-9.221-12.358ZM138.893,63.419v38.033h9.229V62.688a4.567,4.567,0,0,0-1.2-2.787l-.14-.135a4.608,4.608,0,0,0-7.868,3.258,2.855,2.855,0,0,1-.022.4" fill="#040504"/>
    <path id="Path_715" data-name="Path 715" d="M116,25.116h22.672L127.156,7.092Z" fill="#040504" fill-rule="evenodd"/>
    <path id="Path_716" data-name="Path 716" d="M10.924,183.436A1.856,1.856,0,1,1,7.358,182.4a25.874,25.874,0,0,1,21.3-18.4,1.86,1.86,0,1,1,.51,3.684,22.171,22.171,0,0,0-18.245,15.748" fill="#ffd067"/>
    <path id="Path_717" data-name="Path 717" d="M215.751,191.635a1.857,1.857,0,1,1-3.567-1.034,25.867,25.867,0,0,1,21.3-18.4,1.859,1.859,0,0,1,.508,3.684,22.155,22.155,0,0,0-18.244,15.746" fill="#ffd067"/>
    <path id="Path_718" data-name="Path 718" d="M68.544,183.268a1.858,1.858,0,0,1-3.569-1.034A16.192,16.192,0,0,1,78.3,170.726a1.86,1.86,0,0,1,.511,3.685,12.469,12.469,0,0,0-10.266,8.857" fill="#ffd067"/>
    <path id="Path_719" data-name="Path 719" d="M138.752,181.516a1.859,1.859,0,0,1-3.571-1.034,22.316,22.316,0,0,1,18.359-15.854,1.859,1.859,0,1,1,.509,3.683,18.587,18.587,0,0,0-15.3,13.205" fill="#ffd067"/>
    <path id="Path_720" data-name="Path 720" d="M179.83,197.054a1.858,1.858,0,0,1-3.567-1.039,14.472,14.472,0,0,1,11.908-10.282,1.86,1.86,0,0,1,.508,3.686,10.745,10.745,0,0,0-8.849,7.635" fill="#ffd067"/>
    <path id="Path_721" data-name="Path 721" d="M35.24,163.5a1.864,1.864,0,1,1-1.865,1.865A1.868,1.868,0,0,1,35.24,163.5" fill="#ffd067" fill-rule="evenodd"/>
    <path id="Path_722" data-name="Path 722" d="M136.917,185.421a1.864,1.864,0,1,1-1.865,1.865,1.865,1.865,0,0,1,1.865-1.865" fill="#ffd067" fill-rule="evenodd"/>
    <path id="Path_723" data-name="Path 723" d="M194.429,186.073a1.865,1.865,0,1,1-1.86,1.863,1.863,1.863,0,0,1,1.86-1.863" fill="#ffd067" fill-rule="evenodd"/>
    <path id="Path_724" data-name="Path 724" d="M180.63,219.383a5.212,5.212,0,1,1-5.211,5.211,5.212,5.212,0,0,1,5.211-5.211M63.576,196.815a29.769,29.769,0,0,1,19.05,6.856,36.844,36.844,0,0,1,64.793,15.358A16.973,16.973,0,0,1,170.274,240.9,158.449,158.449,0,0,1,42.133,222.048l-.005,0-.368-.238-1.194-.774-.473-.31-.97-.65-.59-.4-1.025-.7-.529-.367-.134-.092-.744-.522-.138-.1-.564-.4-.217-.154a29.9,29.9,0,0,1,28.394-20.522" fill="#ffd067" fill-rule="evenodd"/>
  </g>
</svg>
