<?xml version="1.0" encoding="UTF-8"?><svg id="a" xmlns="http://www.w3.org/2000/svg" viewBox="0 0 128 128.1"><g id="c"><path id="d" d="M126.5,26.2c-.9-1.9-2.1-3.7-3.6-5.2-1.7-1.7-2.3-2-6.1-3.9-2.9-1.5-70.6,6.5-72.7,6.5h-.9c-10.2,.5-18.2,8.9-18.2,19.2v40c-3.9,1.4-8.7,3-13.2,4.6-10.5,3.7-17.7,12.5-5,20.7,5.2,3.3,11.7,3.6,19.1,2.1,9.7-3.5,37.5-14.1,37.5-14.1l15.6-5v12.9l5.5,3,10.8-5v-16.2l32.7-10.5V33.3c0-2.5-.5-4.9-1.5-7.1ZM59.5,94.1l-30.7-12.6V42.8c0-8.2,6.4-14.9,14.6-15.3h.7c4.1,0,7.9,1.6,10.9,4.5,2.9,2.9,4.5,6.8,4.5,10.8v51.3Z"/></g></svg>