<?xml version="1.0" encoding="UTF-8"?><svg id="a" xmlns="http://www.w3.org/2000/svg" viewBox="0 0 128 128.1"><g id="c"><path id="d" d="M121,31.9c3.8,6.5,5.7,13.8,5.7,21.7,0,8.4-2.1,17.1-6.3,26.2-3,6.5-8,11.8-14.9,15.9-6,3.5-11.9,5.3-17.8,5.3-1.8,0-3.5-.2-4.9-.6-4.3-1.2-6.2-4.6-5.7-10.4-5.2,5.4-11.9,8-20,8s-14.2-2.9-19-8.6c-4.6-5.3-6.9-12.1-6.9-20.2,0-2.3,.2-4.8,.6-7.2,1.6-8.7,5.2-15.7,11-20.9,4.8-4.4,10.4-7,16.6-7.6,5.1-.5,10.1,.5,15,3.1s8.1,6.4,9.7,11.4l2.4-13h13.3l-8.4,46.8c-.4,2.2-.3,4.2,.4,5.9,.9,2.1,2.4,3.1,4.5,3.1,4.1,0,8.4-2.5,12.8-7.6,6.5-7.4,9.7-16.5,9.7-27.2,0-6.3-1.4-12.1-4.3-17.6-4.8-9.3-11.6-16.6-20.4-21.9-8.8-5.3-18.4-8-28.8-8-15.3-.1-28.3,5.3-39.1,16.2-10.8,10.8-16.2,23.9-16.2,39.3s5.4,28.5,16.2,39.3c10.8,10.8,23.9,16.2,39.1,16.2s27.3-3.7,37.2-11.2l6.8,5.5c-11.6,9.4-26.3,14.1-44,14.1s-32.7-6.3-45.2-18.8C7.6,96.7,1.4,81.6,1.4,64S7.7,31,20.2,18.6C32.7,6.2,47.8,0,65.4,0c11.6,0,22.3,2.7,32.3,8,10.4,5.7,18.1,13.4,22.9,23.1,0,.2,.1,.4,.4,.8Zm-40,36.2c.3-1.7,.4-3.3,.4-4.7,0-5.5-1.2-9.7-3.7-12.5-3.2-3.9-7.6-5.9-13-5.9-4.5,0-8.6,1.5-12.1,4.5-4,3.5-6.5,8.4-7.4,14.5-.3,1.6-.4,3.1-.4,4.5,0,5,1.4,9.1,4.3,12.5,3.4,3.9,7.7,5.9,13,5.9,4.8,0,8.9-1.7,12.4-5.1,3.4-3.4,5.6-7.9,6.5-13.7Z"/></g></svg>