<?xml version="1.0" encoding="UTF-8"?><svg id="a" xmlns="http://www.w3.org/2000/svg" viewBox="0 0 128 128.04"><g id="c"><path id="d" d="M88,54.3v-13.5h-11.7v14.4h-22.8v-14.4h-11.7v13.2L12.9,87.9H114.6l-26.6-33.6Zm-23.9,27c-9.2,0-16.6-4.2-16.6-9.4s7.4-9.4,16.6-9.4,16.6,4.2,16.6,9.4c.1,5.2-7.4,9.4-16.6,9.4Zm52.8,11.4v17.7H10.8v-17.7H116.9ZM37.6,42.5H0v-12c0-4,23.6-13,64-13s64,9,64,13v12h-35.8v-2.4c0-2.7-2.2-4.8-4.8-4.8,0,0-8.6-1.9-23.7-1.9s-21.3,1.9-21.3,1.9c-2.7,0-4.8,2.2-4.8,4.8,0,0,0,2.4,0,2.4Zm0,9.4H0v-7.2H37.6v7.2Zm90.4,.3h-35.8v-7.2h35.8v7.2Z"/></g></svg>